<?xml version="1.0" encoding="UTF-8"?>
<svg xmlns="http://www.w3.org/2000/svg" xmlns:xlink="http://www.w3.org/1999/xlink" width="288px" height="396px" viewBox="0 0 288 396" version="1.1" id="Fig:dens">
  <metadata xmlns:gridsvg="http://www.stat.auckland.ac.nz/~paul/R/gridSVG/">
    <gridsvg:generator name="gridSVG" version="1.6-0" time="2019-04-12 01:46:26"/>
    <gridsvg:argument name="name" value="/home/darya/Documents/diploma/igea-r/plots/qc/E-GEOD-7434/scan/dens.svg"/>
    <gridsvg:argument name="exportCoords" value="none"/>
    <gridsvg:argument name="exportMappings" value="none"/>
    <gridsvg:argument name="exportJS" value="none"/>
    <gridsvg:argument name="res" value="72"/>
    <gridsvg:argument name="prefix" value="Fig:dens"/>
    <gridsvg:argument name="addClasses" value="FALSE"/>
    <gridsvg:argument name="indent" value="TRUE"/>
    <gridsvg:argument name="htmlWrapper" value="FALSE"/>
    <gridsvg:argument name="usePaths" value="none"/>
    <gridsvg:argument name="uniqueNames" value="TRUE"/>
    <gridsvg:separator name="id.sep" value="."/>
    <gridsvg:separator name="gPath.sep" value="::"/>
    <gridsvg:separator name="vpPath.sep" value="::"/>
  </metadata>
  <g transform="translate(0, 396) scale(1, -1)">
    <g id="Fig:densgridSVG" fill="none" stroke="rgb(0,0,0)" stroke-dasharray="none" stroke-width="0.75" font-size="12" font-family="Helvetica, Arial, FreeSans, Liberation Sans, Nimbus Sans L, sans-serif" opacity="1" stroke-linecap="round" stroke-linejoin="round" stroke-miterlimit="10" stroke-opacity="1" fill-opacity="0" font-weight="normal" font-style="normal">
      <g id="Fig:densplot_01.background.1">
        <rect id="Fig:densplot_01.background.1.1" x="0" y="0" width="288" height="396" transform="" fill="none" stroke="none" stroke-opacity="0" fill-opacity="0"/>
      </g>
      <g id="Fig:densplot_01.toplevel.vp.1" font-size="12">
        <g id="Fig:densplot_01.main.vp.1">
          <g id="Fig:densGRID.VP.159.1">
            <g id="Fig:dens.key.frame.1">
              <g id="Fig:densGRID.VP.160.1">
                <g id="Fig:densGRID.cellGrob.296.1">
                  <g id="Fig:dens.key.background.1">
                    <rect id="Fig:dens.key.background.1.1" x="18.26" y="275.04" width="251.48" height="114.96" transform="" fill="none" opacity="1" stroke="none" stroke-opacity="0" fill-opacity="0"/>
                  </g>
                </g>
              </g>
              <g id="Fig:densGRID.VP.161.1">
                <g id="Fig:densGRID.cellGrob.297.1">
                  <g id="Fig:dens.key.rect.1.1.1">
                    <rect id="Fig:dens.key.rect.1.1.1.1" x="24.93" y="378.5" width="33.36" height="11.5" transform="" opacity="1" fill="rgb(228,26,28)" stroke="rgb(0,0,0)" stroke-opacity="1" fill-opacity="1"/>
                  </g>
                </g>
              </g>
              <g id="Fig:densGRID.VP.162.1">
                <g id="Fig:densGRID.cellGrob.298.1">
                  <g id="Fig:dens.key.rect.1.2.1">
                    <rect id="Fig:dens.key.rect.1.2.1.1" x="24.93" y="367.01" width="33.36" height="11.5" transform="" opacity="1" fill="rgb(55,126,184)" stroke="rgb(0,0,0)" stroke-opacity="1" fill-opacity="1"/>
                  </g>
                </g>
              </g>
              <g id="Fig:densGRID.VP.163.1">
                <g id="Fig:densGRID.cellGrob.299.1">
                  <g id="Fig:dens.key.rect.1.3.1">
                    <rect id="Fig:dens.key.rect.1.3.1.1" x="24.93" y="355.51" width="33.36" height="11.5" transform="" opacity="1" fill="rgb(77,175,74)" stroke="rgb(0,0,0)" stroke-opacity="1" fill-opacity="1"/>
                  </g>
                </g>
              </g>
              <g id="Fig:densGRID.VP.164.1">
                <g id="Fig:densGRID.cellGrob.300.1">
                  <g id="Fig:dens.key.rect.1.4.1">
                    <rect id="Fig:dens.key.rect.1.4.1.1" x="24.93" y="344.02" width="33.36" height="11.5" transform="" opacity="1" fill="rgb(152,78,163)" stroke="rgb(0,0,0)" stroke-opacity="1" fill-opacity="1"/>
                  </g>
                </g>
              </g>
              <g id="Fig:densGRID.VP.165.1">
                <g id="Fig:densGRID.cellGrob.301.1">
                  <g id="Fig:dens.key.rect.1.5.1">
                    <rect id="Fig:dens.key.rect.1.5.1.1" x="24.93" y="332.52" width="33.36" height="11.5" transform="" opacity="1" fill="rgb(255,127,0)" stroke="rgb(0,0,0)" stroke-opacity="1" fill-opacity="1"/>
                  </g>
                </g>
              </g>
              <g id="Fig:densGRID.VP.166.1">
                <g id="Fig:densGRID.cellGrob.302.1">
                  <g id="Fig:dens.key.rect.1.6.1">
                    <rect id="Fig:dens.key.rect.1.6.1.1" x="24.93" y="321.02" width="33.36" height="11.5" transform="" opacity="1" fill="rgb(255,255,51)" stroke="rgb(0,0,0)" stroke-opacity="1" fill-opacity="1"/>
                  </g>
                </g>
              </g>
              <g id="Fig:densGRID.VP.167.1">
                <g id="Fig:densGRID.cellGrob.303.1">
                  <g id="Fig:dens.key.rect.1.7.1">
                    <rect id="Fig:dens.key.rect.1.7.1.1" x="24.93" y="309.53" width="33.36" height="11.5" transform="" opacity="1" fill="rgb(166,86,40)" stroke="rgb(0,0,0)" stroke-opacity="1" fill-opacity="1"/>
                  </g>
                </g>
              </g>
              <g id="Fig:densGRID.VP.168.1">
                <g id="Fig:densGRID.cellGrob.304.1">
                  <g id="Fig:dens.key.rect.1.8.1">
                    <rect id="Fig:dens.key.rect.1.8.1.1" x="24.93" y="298.03" width="33.36" height="11.5" transform="" opacity="1" fill="rgb(247,129,191)" stroke="rgb(0,0,0)" stroke-opacity="1" fill-opacity="1"/>
                  </g>
                </g>
              </g>
              <g id="Fig:densGRID.VP.169.1">
                <g id="Fig:densGRID.cellGrob.305.1">
                  <g id="Fig:dens.key.rect.1.9.1">
                    <rect id="Fig:dens.key.rect.1.9.1.1" x="24.93" y="286.54" width="33.36" height="11.5" transform="" opacity="1" fill="rgb(153,153,153)" stroke="rgb(0,0,0)" stroke-opacity="1" fill-opacity="1"/>
                  </g>
                </g>
              </g>
              <g id="Fig:densGRID.VP.170.1">
                <g id="Fig:densGRID.cellGrob.306.1">
                  <g id="Fig:dens.key.rect.1.10.1">
                    <rect id="Fig:dens.key.rect.1.10.1.1" x="24.93" y="275.04" width="33.36" height="11.5" transform="" opacity="1" fill="rgb(27,158,119)" stroke="rgb(0,0,0)" stroke-opacity="1" fill-opacity="1"/>
                  </g>
                </g>
              </g>
              <g id="Fig:densGRID.VP.171.1">
                <g id="Fig:densGRID.cellGrob.307.1">
                  <g id="Fig:dens.key.text.2.1.1">
                    <g id="Fig:dens.key.text.2.1.1.1" transform="translate(71.63, 384.25)" stroke-width="0.1">
                      <g id="Fig:dens.key.text.2.1.1.1.scale" transform="scale(1, -1)">
                        <text x="0" y="0" id="Fig:dens.key.text.2.1.1.1.text" text-anchor="start" stroke="rgb(0,0,0)" opacity="1" fill="rgb(0,0,0)" stroke-opacity="1" fill-opacity="1" font-size="12" font-weight="normal" font-style="normal">
                          <tspan id="Fig:dens.key.text.2.1.1.1.tspan.1" dy="4.31" x="0">JR-12 placenta, smoking, XY</tspan>
                        </text>
                      </g>
                    </g>
                  </g>
                </g>
              </g>
              <g id="Fig:densGRID.VP.172.1">
                <g id="Fig:densGRID.cellGrob.308.1">
                  <g id="Fig:dens.key.text.2.2.1">
                    <g id="Fig:dens.key.text.2.2.1.1" transform="translate(71.63, 372.76)" stroke-width="0.1">
                      <g id="Fig:dens.key.text.2.2.1.1.scale" transform="scale(1, -1)">
                        <text x="0" y="0" id="Fig:dens.key.text.2.2.1.1.text" text-anchor="start" stroke="rgb(0,0,0)" opacity="1" fill="rgb(0,0,0)" stroke-opacity="1" fill-opacity="1" font-size="12" font-weight="normal" font-style="normal">
                          <tspan id="Fig:dens.key.text.2.2.1.1.tspan.1" dy="4.31" x="0">JR-13 placenta, smoking, XY</tspan>
                        </text>
                      </g>
                    </g>
                  </g>
                </g>
              </g>
              <g id="Fig:densGRID.VP.173.1">
                <g id="Fig:densGRID.cellGrob.309.1">
                  <g id="Fig:dens.key.text.2.3.1">
                    <g id="Fig:dens.key.text.2.3.1.1" transform="translate(71.63, 361.26)" stroke-width="0.1">
                      <g id="Fig:dens.key.text.2.3.1.1.scale" transform="scale(1, -1)">
                        <text x="0" y="0" id="Fig:dens.key.text.2.3.1.1.text" text-anchor="start" stroke="rgb(0,0,0)" opacity="1" fill="rgb(0,0,0)" stroke-opacity="1" fill-opacity="1" font-size="12" font-weight="normal" font-style="normal">
                          <tspan id="Fig:dens.key.text.2.3.1.1.tspan.1" dy="4.31" x="0">JR-14 placenta, smoking, XY</tspan>
                        </text>
                      </g>
                    </g>
                  </g>
                </g>
              </g>
              <g id="Fig:densGRID.VP.174.1">
                <g id="Fig:densGRID.cellGrob.310.1">
                  <g id="Fig:dens.key.text.2.4.1">
                    <g id="Fig:dens.key.text.2.4.1.1" transform="translate(71.63, 349.76)" stroke-width="0.1">
                      <g id="Fig:dens.key.text.2.4.1.1.scale" transform="scale(1, -1)">
                        <text x="0" y="0" id="Fig:dens.key.text.2.4.1.1.text" text-anchor="start" stroke="rgb(0,0,0)" opacity="1" fill="rgb(0,0,0)" stroke-opacity="1" fill-opacity="1" font-size="12" font-weight="normal" font-style="normal">
                          <tspan id="Fig:dens.key.text.2.4.1.1.tspan.1" dy="4.31" x="0">JR-26 placenta, non-smoking, XY</tspan>
                        </text>
                      </g>
                    </g>
                  </g>
                </g>
              </g>
              <g id="Fig:densGRID.VP.175.1">
                <g id="Fig:densGRID.cellGrob.311.1">
                  <g id="Fig:dens.key.text.2.5.1">
                    <g id="Fig:dens.key.text.2.5.1.1" transform="translate(71.63, 338.27)" stroke-width="0.1">
                      <g id="Fig:dens.key.text.2.5.1.1.scale" transform="scale(1, -1)">
                        <text x="0" y="0" id="Fig:dens.key.text.2.5.1.1.text" text-anchor="start" stroke="rgb(0,0,0)" opacity="1" fill="rgb(0,0,0)" stroke-opacity="1" fill-opacity="1" font-size="12" font-weight="normal" font-style="normal">
                          <tspan id="Fig:dens.key.text.2.5.1.1.tspan.1" dy="4.31" x="0">JR-27 placenta, non-smoking, X</tspan>
                        </text>
                      </g>
                    </g>
                  </g>
                </g>
              </g>
              <g id="Fig:densGRID.VP.176.1">
                <g id="Fig:densGRID.cellGrob.312.1">
                  <g id="Fig:dens.key.text.2.6.1">
                    <g id="Fig:dens.key.text.2.6.1.1" transform="translate(71.63, 326.77)" stroke-width="0.1">
                      <g id="Fig:dens.key.text.2.6.1.1.scale" transform="scale(1, -1)">
                        <text x="0" y="0" id="Fig:dens.key.text.2.6.1.1.text" text-anchor="start" stroke="rgb(0,0,0)" opacity="1" fill="rgb(0,0,0)" stroke-opacity="1" fill-opacity="1" font-size="12" font-weight="normal" font-style="normal">
                          <tspan id="Fig:dens.key.text.2.6.1.1.tspan.1" dy="4.31" x="0">JR-31 placenta, non-smoking, XY</tspan>
                        </text>
                      </g>
                    </g>
                  </g>
                </g>
              </g>
              <g id="Fig:densGRID.VP.177.1">
                <g id="Fig:densGRID.cellGrob.313.1">
                  <g id="Fig:dens.key.text.2.7.1">
                    <g id="Fig:dens.key.text.2.7.1.1" transform="translate(71.63, 315.28)" stroke-width="0.1">
                      <g id="Fig:dens.key.text.2.7.1.1.scale" transform="scale(1, -1)">
                        <text x="0" y="0" id="Fig:dens.key.text.2.7.1.1.text" text-anchor="start" stroke="rgb(0,0,0)" opacity="1" fill="rgb(0,0,0)" stroke-opacity="1" fill-opacity="1" font-size="12" font-weight="normal" font-style="normal">
                          <tspan id="Fig:dens.key.text.2.7.1.1.tspan.1" dy="4.31" x="0">JR-915 placenta, non-smoking, XY</tspan>
                        </text>
                      </g>
                    </g>
                  </g>
                </g>
              </g>
              <g id="Fig:densGRID.VP.178.1">
                <g id="Fig:densGRID.cellGrob.314.1">
                  <g id="Fig:dens.key.text.2.8.1">
                    <g id="Fig:dens.key.text.2.8.1.1" transform="translate(71.63, 303.78)" stroke-width="0.1">
                      <g id="Fig:dens.key.text.2.8.1.1.scale" transform="scale(1, -1)">
                        <text x="0" y="0" id="Fig:dens.key.text.2.8.1.1.text" text-anchor="start" stroke="rgb(0,0,0)" opacity="1" fill="rgb(0,0,0)" stroke-opacity="1" fill-opacity="1" font-size="12" font-weight="normal" font-style="normal">
                          <tspan id="Fig:dens.key.text.2.8.1.1.tspan.1" dy="4.31" x="0">JR-916 placenta, smoking, XY</tspan>
                        </text>
                      </g>
                    </g>
                  </g>
                </g>
              </g>
              <g id="Fig:densGRID.VP.179.1">
                <g id="Fig:densGRID.cellGrob.315.1">
                  <g id="Fig:dens.key.text.2.9.1">
                    <g id="Fig:dens.key.text.2.9.1.1" transform="translate(71.63, 292.28)" stroke-width="0.1">
                      <g id="Fig:dens.key.text.2.9.1.1.scale" transform="scale(1, -1)">
                        <text x="0" y="0" id="Fig:dens.key.text.2.9.1.1.text" text-anchor="start" stroke="rgb(0,0,0)" opacity="1" fill="rgb(0,0,0)" stroke-opacity="1" fill-opacity="1" font-size="12" font-weight="normal" font-style="normal">
                          <tspan id="Fig:dens.key.text.2.9.1.1.tspan.1" dy="4.31" x="0">JR-917 placenta, non-smoking, XX</tspan>
                        </text>
                      </g>
                    </g>
                  </g>
                </g>
              </g>
              <g id="Fig:densGRID.VP.180.1">
                <g id="Fig:densGRID.cellGrob.316.1">
                  <g id="Fig:dens.key.text.2.10.1">
                    <g id="Fig:dens.key.text.2.10.1.1" transform="translate(71.63, 280.79)" stroke-width="0.1">
                      <g id="Fig:dens.key.text.2.10.1.1.scale" transform="scale(1, -1)">
                        <text x="0" y="0" id="Fig:dens.key.text.2.10.1.1.text" text-anchor="start" stroke="rgb(0,0,0)" opacity="1" fill="rgb(0,0,0)" stroke-opacity="1" fill-opacity="1" font-size="12" font-weight="normal" font-style="normal">
                          <tspan id="Fig:dens.key.text.2.10.1.1.tspan.1" dy="4.31" x="0">JR-918 placenta, smoking, XY</tspan>
                        </text>
                      </g>
                    </g>
                  </g>
                </g>
              </g>
            </g>
          </g>
        </g>
        <g id="Fig:densplot_01.ylab.vp.1">
          <g id="Fig:densplot_01.ylab.1">
            <g id="Fig:densplot_01.ylab.1.1" transform="translate(10.31, 152.61)" stroke-width="0.1">
              <g id="Fig:densplot_01.ylab.1.1.scale" transform="scale(1, -1)">
                <text x="0" y="0" id="Fig:densplot_01.ylab.1.1.text" transform="rotate(-90)" text-anchor="middle" opacity="1" stroke="rgb(0,0,0)" fill="rgb(0,0,0)" stroke-opacity="1" fill-opacity="1" font-size="12" font-weight="normal" font-style="normal">
                  <tspan id="Fig:densplot_01.ylab.1.1.tspan.1" dy="4.31" x="0">Density</tspan>
                </text>
              </g>
            </g>
          </g>
        </g>
        <g id="Fig:densplot_01.figure.vp.1"/>
        <defs>
          <clipPath id="Fig:densplot_01.panel.1.1.vp.1.clipPath">
            <rect x="44.8" y="42.19" width="231.2" height="220.85" fill="none" stroke="none"/>
          </clipPath>
        </defs>
        <g id="Fig:densplot_01.panel.1.1.vp.1" clip-path="url(#Fig:densplot_01.panel.1.1.vp.1.clipPath)"/>
        <g id="Fig:densplot_01.strip.1.1.off.vp.1"/>
        <g id="Fig:densplot_01.strip.left.1.1.off.vp.1">
          <g id="Fig:densplot_01.ticks.left.panel.1.1.1">
            <polyline id="Fig:densplot_01.ticks.left.panel.1.1.1.1" points="44.8,55.73 39.13,55.73" stroke="rgb(0,0,0)" opacity="1" stroke-dasharray="none" stroke-width="0.75" stroke-opacity="1" fill="none"/>
            <polyline id="Fig:densplot_01.ticks.left.panel.1.1.1.2" points="44.8,107.37 39.13,107.37" stroke="rgb(0,0,0)" opacity="1" stroke-dasharray="none" stroke-width="0.75" stroke-opacity="1" fill="none"/>
            <polyline id="Fig:densplot_01.ticks.left.panel.1.1.1.3" points="44.8,159.01 39.13,159.01" stroke="rgb(0,0,0)" opacity="1" stroke-dasharray="none" stroke-width="0.75" stroke-opacity="1" fill="none"/>
            <polyline id="Fig:densplot_01.ticks.left.panel.1.1.1.4" points="44.8,210.65 39.13,210.65" stroke="rgb(0,0,0)" opacity="1" stroke-dasharray="none" stroke-width="0.75" stroke-opacity="1" fill="none"/>
            <polyline id="Fig:densplot_01.ticks.left.panel.1.1.1.5" points="44.8,262.29 39.13,262.29" stroke="rgb(0,0,0)" opacity="1" stroke-dasharray="none" stroke-width="0.75" stroke-opacity="1" fill="none"/>
          </g>
          <g id="Fig:densplot_01.ticklabels.left.panel.1.1.1">
            <g id="Fig:densplot_01.ticklabels.left.panel.1.1.1.1" transform="translate(33.47, 55.73)" stroke-width="0.1">
              <g id="Fig:densplot_01.ticklabels.left.panel.1.1.1.1.scale" transform="scale(1, -1)">
                <text x="0" y="0" id="Fig:densplot_01.ticklabels.left.panel.1.1.1.1.text" transform="rotate(-90)" text-anchor="middle" stroke="rgb(0,0,0)" opacity="1" fill="rgb(0,0,0)" stroke-opacity="1" fill-opacity="1" font-size="9.6" font-weight="normal" font-style="normal">
                  <tspan id="Fig:densplot_01.ticklabels.left.panel.1.1.1.1.tspan.1" dy="0" x="0">0.00</tspan>
                </text>
              </g>
            </g>
            <g id="Fig:densplot_01.ticklabels.left.panel.1.1.1.2" transform="translate(33.47, 107.37)" stroke-width="0.1">
              <g id="Fig:densplot_01.ticklabels.left.panel.1.1.1.2.scale" transform="scale(1, -1)">
                <text x="0" y="0" id="Fig:densplot_01.ticklabels.left.panel.1.1.1.2.text" transform="rotate(-90)" text-anchor="middle" stroke="rgb(0,0,0)" opacity="1" fill="rgb(0,0,0)" stroke-opacity="1" fill-opacity="1" font-size="9.6" font-weight="normal" font-style="normal">
                  <tspan id="Fig:densplot_01.ticklabels.left.panel.1.1.1.2.tspan.1" dy="0" x="0">0.05</tspan>
                </text>
              </g>
            </g>
            <g id="Fig:densplot_01.ticklabels.left.panel.1.1.1.3" transform="translate(33.47, 159.01)" stroke-width="0.1">
              <g id="Fig:densplot_01.ticklabels.left.panel.1.1.1.3.scale" transform="scale(1, -1)">
                <text x="0" y="0" id="Fig:densplot_01.ticklabels.left.panel.1.1.1.3.text" transform="rotate(-90)" text-anchor="middle" stroke="rgb(0,0,0)" opacity="1" fill="rgb(0,0,0)" stroke-opacity="1" fill-opacity="1" font-size="9.6" font-weight="normal" font-style="normal">
                  <tspan id="Fig:densplot_01.ticklabels.left.panel.1.1.1.3.tspan.1" dy="0" x="0">0.10</tspan>
                </text>
              </g>
            </g>
            <g id="Fig:densplot_01.ticklabels.left.panel.1.1.1.4" transform="translate(33.47, 210.65)" stroke-width="0.1">
              <g id="Fig:densplot_01.ticklabels.left.panel.1.1.1.4.scale" transform="scale(1, -1)">
                <text x="0" y="0" id="Fig:densplot_01.ticklabels.left.panel.1.1.1.4.text" transform="rotate(-90)" text-anchor="middle" stroke="rgb(0,0,0)" opacity="1" fill="rgb(0,0,0)" stroke-opacity="1" fill-opacity="1" font-size="9.6" font-weight="normal" font-style="normal">
                  <tspan id="Fig:densplot_01.ticklabels.left.panel.1.1.1.4.tspan.1" dy="0" x="0">0.15</tspan>
                </text>
              </g>
            </g>
          </g>
        </g>
        <g id="Fig:densplot_01.panel.1.1.off.vp.1">
          <g id="Fig:densplot_01.ticks.bottom.panel.1.1.1">
            <polyline id="Fig:densplot_01.ticks.bottom.panel.1.1.1.1" points="55.14,42.19 55.14,36.52" stroke="rgb(0,0,0)" opacity="1" stroke-dasharray="none" stroke-width="0.75" stroke-opacity="1" fill="none"/>
            <polyline id="Fig:densplot_01.ticks.bottom.panel.1.1.1.2" points="96.78,42.19 96.78,36.52" stroke="rgb(0,0,0)" opacity="1" stroke-dasharray="none" stroke-width="0.75" stroke-opacity="1" fill="none"/>
            <polyline id="Fig:densplot_01.ticks.bottom.panel.1.1.1.3" points="138.43,42.19 138.43,36.52" stroke="rgb(0,0,0)" opacity="1" stroke-dasharray="none" stroke-width="0.75" stroke-opacity="1" fill="none"/>
            <polyline id="Fig:densplot_01.ticks.bottom.panel.1.1.1.4" points="180.07,42.19 180.07,36.52" stroke="rgb(0,0,0)" opacity="1" stroke-dasharray="none" stroke-width="0.75" stroke-opacity="1" fill="none"/>
            <polyline id="Fig:densplot_01.ticks.bottom.panel.1.1.1.5" points="221.72,42.19 221.72,36.52" stroke="rgb(0,0,0)" opacity="1" stroke-dasharray="none" stroke-width="0.75" stroke-opacity="1" fill="none"/>
            <polyline id="Fig:densplot_01.ticks.bottom.panel.1.1.1.6" points="263.37,42.19 263.37,36.52" stroke="rgb(0,0,0)" opacity="1" stroke-dasharray="none" stroke-width="0.75" stroke-opacity="1" fill="none"/>
          </g>
          <g id="Fig:densplot_01.ticklabels.bottom.panel.1.1.1">
            <g id="Fig:densplot_01.ticklabels.bottom.panel.1.1.1.1" transform="translate(55.14, 30.85)" stroke-width="0.1">
              <g id="Fig:densplot_01.ticklabels.bottom.panel.1.1.1.1.scale" transform="scale(1, -1)">
                <text x="0" y="0" id="Fig:densplot_01.ticklabels.bottom.panel.1.1.1.1.text" text-anchor="middle" stroke="rgb(0,0,0)" opacity="1" fill="rgb(0,0,0)" stroke-opacity="1" fill-opacity="1" font-size="9.6" font-weight="normal" font-style="normal">
                  <tspan id="Fig:densplot_01.ticklabels.bottom.panel.1.1.1.1.tspan.1" dy="7.18" x="0">2</tspan>
                </text>
              </g>
            </g>
            <g id="Fig:densplot_01.ticklabels.bottom.panel.1.1.1.2" transform="translate(96.78, 30.85)" stroke-width="0.1">
              <g id="Fig:densplot_01.ticklabels.bottom.panel.1.1.1.2.scale" transform="scale(1, -1)">
                <text x="0" y="0" id="Fig:densplot_01.ticklabels.bottom.panel.1.1.1.2.text" text-anchor="middle" stroke="rgb(0,0,0)" opacity="1" fill="rgb(0,0,0)" stroke-opacity="1" fill-opacity="1" font-size="9.6" font-weight="normal" font-style="normal">
                  <tspan id="Fig:densplot_01.ticklabels.bottom.panel.1.1.1.2.tspan.1" dy="7.18" x="0">4</tspan>
                </text>
              </g>
            </g>
            <g id="Fig:densplot_01.ticklabels.bottom.panel.1.1.1.3" transform="translate(138.43, 30.85)" stroke-width="0.1">
              <g id="Fig:densplot_01.ticklabels.bottom.panel.1.1.1.3.scale" transform="scale(1, -1)">
                <text x="0" y="0" id="Fig:densplot_01.ticklabels.bottom.panel.1.1.1.3.text" text-anchor="middle" stroke="rgb(0,0,0)" opacity="1" fill="rgb(0,0,0)" stroke-opacity="1" fill-opacity="1" font-size="9.6" font-weight="normal" font-style="normal">
                  <tspan id="Fig:densplot_01.ticklabels.bottom.panel.1.1.1.3.tspan.1" dy="7.18" x="0">6</tspan>
                </text>
              </g>
            </g>
            <g id="Fig:densplot_01.ticklabels.bottom.panel.1.1.1.4" transform="translate(180.07, 30.85)" stroke-width="0.1">
              <g id="Fig:densplot_01.ticklabels.bottom.panel.1.1.1.4.scale" transform="scale(1, -1)">
                <text x="0" y="0" id="Fig:densplot_01.ticklabels.bottom.panel.1.1.1.4.text" text-anchor="middle" stroke="rgb(0,0,0)" opacity="1" fill="rgb(0,0,0)" stroke-opacity="1" fill-opacity="1" font-size="9.6" font-weight="normal" font-style="normal">
                  <tspan id="Fig:densplot_01.ticklabels.bottom.panel.1.1.1.4.tspan.1" dy="7.18" x="0">8</tspan>
                </text>
              </g>
            </g>
            <g id="Fig:densplot_01.ticklabels.bottom.panel.1.1.1.5" transform="translate(221.72, 30.85)" stroke-width="0.1">
              <g id="Fig:densplot_01.ticklabels.bottom.panel.1.1.1.5.scale" transform="scale(1, -1)">
                <text x="0" y="0" id="Fig:densplot_01.ticklabels.bottom.panel.1.1.1.5.text" text-anchor="middle" stroke="rgb(0,0,0)" opacity="1" fill="rgb(0,0,0)" stroke-opacity="1" fill-opacity="1" font-size="9.6" font-weight="normal" font-style="normal">
                  <tspan id="Fig:densplot_01.ticklabels.bottom.panel.1.1.1.5.tspan.1" dy="7.18" x="0">10</tspan>
                </text>
              </g>
            </g>
            <g id="Fig:densplot_01.ticklabels.bottom.panel.1.1.1.6" transform="translate(263.37, 30.85)" stroke-width="0.1">
              <g id="Fig:densplot_01.ticklabels.bottom.panel.1.1.1.6.scale" transform="scale(1, -1)">
                <text x="0" y="0" id="Fig:densplot_01.ticklabels.bottom.panel.1.1.1.6.text" text-anchor="middle" stroke="rgb(0,0,0)" opacity="1" fill="rgb(0,0,0)" stroke-opacity="1" fill-opacity="1" font-size="9.6" font-weight="normal" font-style="normal">
                  <tspan id="Fig:densplot_01.ticklabels.bottom.panel.1.1.1.6.tspan.1" dy="7.18" x="0">12</tspan>
                </text>
              </g>
            </g>
          </g>
        </g>
        <defs>
          <clipPath id="Fig:densplot_01.panel.1.1.vp.2.clipPath">
            <rect x="44.8" y="42.19" width="231.2" height="220.85" fill="none" stroke="none"/>
          </clipPath>
        </defs>
        <g id="Fig:densplot_01.panel.1.1.vp.2" clip-path="url(#Fig:densplot_01.panel.1.1.vp.2.clipPath)">
          <g id="Fig:densplot_01.xyplot.lines.group.1.panel.1.1.1">
            <polyline id="Fig:densplot_01.xyplot.lines.group.1.panel.1.1.1.1" points="59.14,55.78 59.53,55.8 59.93,55.82 60.32,55.84 60.72,55.88 61.12,55.92 61.51,55.97 61.91,56.03 62.3,56.11 62.7,56.21 63.1,56.33 63.49,56.48 63.89,56.65 64.28,56.86 64.68,57.12 65.07,57.43 65.47,57.8 65.87,58.22 66.26,58.72 66.66,59.29 67.05,59.97 67.45,60.75 67.84,61.65 68.24,62.67 68.64,63.82 69.03,65.11 69.43,66.58 69.82,68.22 70.22,70.05 70.61,72.05 71.01,74.25 71.41,76.64 71.8,79.27 72.2,82.13 72.59,85.19 72.99,88.47 73.39,91.95 73.78,95.64 74.18,99.56 74.57,103.68 74.97,107.98 75.36,112.44 75.76,117.05 76.16,121.8 76.55,126.68 76.95,131.66 77.34,136.71 77.74,141.81 78.13,146.94 78.53,152.09 78.93,157.22 79.32,162.3 79.72,167.33 80.11,172.28 80.51,177.13 80.9,181.87 81.3,186.47 81.7,190.91 82.09,195.19 82.49,199.31 82.88,203.26 83.28,207.04 83.68,210.61 84.07,213.98 84.47,217.17 84.86,220.17 85.26,223 85.65,225.65 86.05,228.12 86.45,230.39 86.84,232.51 87.24,234.47 87.63,236.29 88.03,237.97 88.42,239.51 88.82,240.9 89.22,242.17 89.61,243.33 90.01,244.38 90.4,245.32 90.8,246.16 91.2,246.88 91.59,247.51 91.99,248.05 92.38,248.5 92.78,248.87 93.17,249.15 93.57,249.34 93.97,249.45 94.36,249.48 94.76,249.44 95.15,249.33 95.55,249.16 95.94,248.9 96.34,248.59 96.74,248.23 97.13,247.82 97.53,247.36 97.92,246.86 98.32,246.32 98.71,245.75 99.11,245.16 99.51,244.54 99.9,243.91 100.3,243.27 100.69,242.62 101.09,241.97 101.49,241.31 101.88,240.66 102.28,240.01 102.67,239.36 103.07,238.72 103.46,238.09 103.86,237.46 104.26,236.83 104.65,236.22 105.05,235.6 105.44,235 105.84,234.39 106.23,233.78 106.63,233.17 107.03,232.56 107.42,231.95 107.82,231.33 108.21,230.7 108.61,230.07 109,229.43 109.4,228.77 109.8,228.11 110.19,227.44 110.59,226.75 110.98,226.06 111.38,225.36 111.78,224.66 112.17,223.95 112.57,223.24 112.96,222.54 113.36,221.84 113.75,221.15 114.15,220.47 114.55,219.82 114.94,219.19 115.34,218.59 115.73,218.03 116.13,217.5 116.52,217.01 116.92,216.56 117.32,216.17 117.71,215.83 118.11,215.54 118.5,215.3 118.9,215.11 119.29,214.97 119.69,214.88 120.09,214.84 120.48,214.84 120.88,214.88 121.27,214.95 121.67,215.05 122.07,215.18 122.46,215.33 122.86,215.49 123.25,215.66 123.65,215.84 124.04,216.02 124.44,216.2 124.84,216.37 125.23,216.53 125.63,216.69 126.02,216.83 126.42,216.96 126.81,217.08 127.21,217.18 127.61,217.27 128,217.34 128.4,217.41 128.79,217.46 129.19,217.5 129.59,217.53 129.98,217.56 130.38,217.57 130.77,217.59 131.17,217.59 131.56,217.6 131.96,217.6 132.36,217.59 132.75,217.59 133.15,217.58 133.54,217.58 133.94,217.57 134.33,217.57 134.73,217.56 135.13,217.56 135.52,217.56 135.92,217.57 136.31,217.58 136.71,217.59 137.1,217.61 137.5,217.64 137.9,217.68 138.29,217.72 138.69,217.78 139.08,217.84 139.48,217.93 139.88,218.02 140.27,218.13 140.67,218.25 141.06,218.39 141.46,218.54 141.85,218.72 142.25,218.91 142.65,219.11 143.04,219.33 143.44,219.57 143.83,219.83 144.23,220.1 144.62,220.39 145.02,220.68 145.42,220.99 145.81,221.32 146.21,221.65 146.6,221.99 147,222.33 147.39,222.68 147.79,223.04 148.19,223.39 148.58,223.75 148.98,224.1 149.37,224.44 149.77,224.78 150.17,225.11 150.56,225.44 150.96,225.75 151.35,226.05 151.75,226.34 152.14,226.61 152.54,226.87 152.94,227.12 153.33,227.34 153.73,227.55 154.12,227.74 154.52,227.92 154.91,228.08 155.31,228.21 155.71,228.33 156.1,228.42 156.5,228.5 156.89,228.55 157.29,228.58 157.68,228.58 158.08,228.56 158.48,228.5 158.87,228.42 159.27,228.32 159.66,228.18 160.06,228.02 160.46,227.82 160.85,227.59 161.25,227.33 161.64,227.04 162.04,226.72 162.43,226.38 162.83,226.01 163.23,225.61 163.62,225.19 164.02,224.74 164.41,224.28 164.81,223.8 165.2,223.3 165.6,222.79 166,222.26 166.39,221.72 166.79,221.17 167.18,220.61 167.58,220.03 167.98,219.45 168.37,218.85 168.77,218.24 169.16,217.61 169.56,216.97 169.95,216.32 170.35,215.64 170.75,214.95 171.14,214.23 171.54,213.5 171.93,212.74 172.33,211.96 172.72,211.15 173.12,210.33 173.52,209.48 173.91,208.62 174.31,207.74 174.7,206.84 175.1,205.94 175.49,205.02 175.89,204.1 176.29,203.18 176.68,202.26 177.08,201.34 177.47,200.43 177.87,199.53 178.27,198.64 178.66,197.77 179.06,196.91 179.45,196.06 179.85,195.23 180.24,194.41 180.64,193.6 181.04,192.81 181.43,192.02 181.83,191.23 182.22,190.45 182.62,189.66 183.01,188.87 183.41,188.06 183.81,187.25 184.2,186.42 184.6,185.56 184.99,184.68 185.39,183.77 185.78,182.84 186.18,181.87 186.58,180.88 186.97,179.84 187.37,178.77 187.76,177.67 188.16,176.53 188.56,175.37 188.95,174.17 189.35,172.93 189.74,171.67 190.14,170.38 190.53,169.06 190.93,167.72 191.33,166.37 191.72,164.99 192.12,163.6 192.51,162.2 192.91,160.79 193.3,159.38 193.7,157.96 194.1,156.54 194.49,155.13 194.89,153.72 195.28,152.32 195.68,150.93 196.07,149.55 196.47,148.18 196.87,146.83 197.26,145.5 197.66,144.18 198.05,142.88 198.45,141.61 198.85,140.36 199.24,139.13 199.64,137.92 200.03,136.74 200.43,135.59 200.82,134.46 201.22,133.36 201.62,132.3 202.01,131.26 202.41,130.24 202.8,129.26 203.2,128.31 203.59,127.39 203.99,126.51 204.39,125.65 204.78,124.83 205.18,124.03 205.57,123.26 205.97,122.53 206.37,121.82 206.76,121.14 207.16,120.48 207.55,119.84 207.95,119.23 208.34,118.63 208.74,118.05 209.14,117.49 209.53,116.93 209.93,116.38 210.32,115.84 210.72,115.3 211.11,114.76 211.51,114.22 211.91,113.67 212.3,113.12 212.7,112.56 213.09,111.98 213.49,111.4 213.88,110.79 214.28,110.17 214.68,109.54 215.07,108.89 215.47,108.22 215.86,107.53 216.26,106.82 216.66,106.1 217.05,105.36 217.45,104.61 217.84,103.84 218.24,103.06 218.63,102.27 219.03,101.48 219.43,100.68 219.82,99.87 220.22,99.07 220.61,98.26 221.01,97.46 221.4,96.67 221.8,95.88 222.2,95.11 222.59,94.34 222.99,93.6 223.38,92.87 223.78,92.15 224.17,91.46 224.57,90.78 224.97,90.13 225.36,89.5 225.76,88.88 226.15,88.29 226.55,87.72 226.95,87.17 227.34,86.64 227.74,86.13 228.13,85.64 228.53,85.17 228.92,84.71 229.32,84.27 229.72,83.84 230.11,83.42 230.51,83.02 230.9,82.62 231.3,82.24 231.69,81.86 232.09,81.49 232.49,81.13 232.88,80.77 233.28,80.42 233.67,80.07 234.07,79.72 234.47,79.38 234.86,79.03 235.26,78.69 235.65,78.34 236.05,77.99 236.44,77.63 236.84,77.27 237.24,76.9 237.63,76.53 238.03,76.14 238.42,75.75 238.82,75.34 239.21,74.92 239.61,74.49 240.01,74.04 240.4,73.57 240.8,73.09 241.19,72.59 241.59,72.07 241.98,71.54 242.38,70.99 242.78,70.42 243.17,69.84 243.57,69.25 243.96,68.65 244.36,68.03 244.76,67.41 245.15,66.79 245.55,66.16 245.94,65.54 246.34,64.92 246.73,64.31 247.13,63.7 247.53,63.12 247.92,62.54 248.32,61.99 248.71,61.45 249.11,60.94 249.5,60.46 249.9,60 250.3,59.57 250.69,59.16 251.09,58.78 251.48,58.43 251.88,58.12 252.27,57.82 252.67,57.56 253.07,57.32 253.46,57.1 253.86,56.91 254.25,56.74 254.65,56.59 255.05,56.46 255.44,56.34 255.84,56.24 256.23,56.16 256.63,56.08 257.02,56.02 257.42,55.97 257.82,55.93 258.21,55.89 258.61,55.86 259,55.83 259.4,55.81 259.79,55.8 260.19,55.78 260.59,55.77 260.98,55.76 261.38,55.75" stroke-dasharray="none" stroke="rgb(153,153,153)" stroke-width="0.75" opacity="1" stroke-opacity="1" fill="none"/>
          </g>
          <g id="Fig:densplot_01.xyplot.lines.group.2.panel.1.1.1">
            <polyline id="Fig:densplot_01.xyplot.lines.group.2.panel.1.1.1.1" points="59.05,55.77 59.45,55.78 59.85,55.8 60.24,55.82 60.64,55.85 61.04,55.88 61.43,55.92 61.83,55.97 62.23,56.04 62.62,56.12 63.02,56.22 63.41,56.34 63.81,56.49 64.21,56.67 64.6,56.89 65,57.15 65.4,57.46 65.79,57.82 66.19,58.24 66.59,58.74 66.98,59.33 67.38,60.01 67.78,60.79 68.17,61.69 68.57,62.7 68.96,63.84 69.36,65.16 69.76,66.63 70.15,68.26 70.55,70.07 70.95,72.06 71.34,74.24 71.74,76.67 72.14,79.29 72.53,82.13 72.93,85.17 73.32,88.42 73.72,91.89 74.12,95.6 74.51,99.51 74.91,103.6 75.31,107.87 75.7,112.31 76.1,116.9 76.5,121.65 76.89,126.52 77.29,131.47 77.69,136.5 78.08,141.58 78.48,146.7 78.87,151.82 79.27,156.92 79.67,161.98 80.06,166.98 80.46,171.9 80.86,176.73 81.25,181.42 81.65,185.96 82.05,190.35 82.44,194.59 82.84,198.65 83.24,202.53 83.63,206.2 84.03,209.66 84.42,212.92 84.82,215.99 85.22,218.86 85.61,221.53 86.01,223.98 86.41,226.23 86.8,228.3 87.2,230.19 87.6,231.92 87.99,233.48 88.39,234.87 88.78,236.1 89.18,237.2 89.58,238.18 89.97,239.04 90.37,239.8 90.77,240.44 91.16,240.99 91.56,241.46 91.96,241.87 92.35,242.21 92.75,242.49 93.15,242.72 93.54,242.91 93.94,243.05 94.33,243.16 94.73,243.25 95.13,243.3 95.52,243.33 95.92,243.32 96.32,243.3 96.71,243.26 97.11,243.19 97.51,243.1 97.9,242.98 98.3,242.84 98.69,242.67 99.09,242.47 99.49,242.25 99.88,241.99 100.28,241.71 100.68,241.4 101.07,241.05 101.47,240.68 101.87,240.28 102.26,239.85 102.66,239.39 103.06,238.9 103.45,238.38 103.85,237.85 104.24,237.3 104.64,236.72 105.04,236.13 105.43,235.53 105.83,234.92 106.23,234.3 106.62,233.67 107.02,233.05 107.42,232.43 107.81,231.81 108.21,231.2 108.61,230.6 109,230.02 109.4,229.45 109.79,228.9 110.19,228.37 110.59,227.86 110.98,227.38 111.38,226.91 111.78,226.47 112.17,226.05 112.57,225.66 112.97,225.28 113.36,224.93 113.76,224.59 114.15,224.27 114.55,223.97 114.95,223.68 115.34,223.4 115.74,223.14 116.14,222.88 116.53,222.63 116.93,222.38 117.33,222.14 117.72,221.91 118.12,221.68 118.52,221.46 118.91,221.25 119.31,221.04 119.7,220.84 120.1,220.65 120.5,220.47 120.89,220.3 121.29,220.15 121.69,220 122.08,219.87 122.48,219.76 122.88,219.66 123.27,219.57 123.67,219.5 124.07,219.43 124.46,219.39 124.86,219.35 125.25,219.33 125.65,219.31 126.05,219.31 126.44,219.31 126.84,219.33 127.24,219.35 127.63,219.38 128.03,219.41 128.43,219.46 128.82,219.5 129.22,219.56 129.61,219.61 130.01,219.68 130.41,219.74 130.8,219.81 131.2,219.88 131.6,219.96 131.99,220.03 132.39,220.1 132.79,220.17 133.18,220.23 133.58,220.29 133.98,220.34 134.37,220.39 134.77,220.43 135.16,220.45 135.56,220.47 135.96,220.49 136.35,220.49 136.75,220.49 137.15,220.49 137.54,220.49 137.94,220.48 138.34,220.48 138.73,220.49 139.13,220.5 139.53,220.53 139.92,220.57 140.32,220.63 140.71,220.7 141.11,220.8 141.51,220.92 141.9,221.06 142.3,221.23 142.7,221.42 143.09,221.63 143.49,221.86 143.89,222.12 144.28,222.39 144.68,222.68 145.07,222.99 145.47,223.31 145.87,223.64 146.26,223.97 146.66,224.31 147.06,224.65 147.45,224.99 147.85,225.32 148.25,225.64 148.64,225.95 149.04,226.24 149.44,226.52 149.83,226.77 150.23,227 150.62,227.21 151.02,227.38 151.42,227.53 151.81,227.64 152.21,227.73 152.61,227.78 153,227.81 153.4,227.79 153.8,227.75 154.19,227.68 154.59,227.58 154.99,227.45 155.38,227.3 155.78,227.13 156.17,226.94 156.57,226.74 156.97,226.52 157.36,226.29 157.76,226.05 158.16,225.81 158.55,225.56 158.95,225.31 159.35,225.06 159.74,224.81 160.14,224.56 160.53,224.31 160.93,224.06 161.33,223.8 161.72,223.55 162.12,223.3 162.52,223.04 162.91,222.77 163.31,222.5 163.71,222.22 164.1,221.92 164.5,221.62 164.9,221.3 165.29,220.96 165.69,220.6 166.08,220.23 166.48,219.83 166.88,219.42 167.27,218.98 167.67,218.52 168.07,218.03 168.46,217.52 168.86,216.99 169.26,216.43 169.65,215.85 170.05,215.24 170.45,214.6 170.84,213.93 171.24,213.24 171.63,212.51 172.03,211.76 172.43,210.99 172.82,210.17 173.22,209.33 173.62,208.47 174.01,207.58 174.41,206.66 174.81,205.73 175.2,204.76 175.6,203.78 175.99,202.79 176.39,201.78 176.79,200.76 177.18,199.74 177.58,198.72 177.98,197.69 178.37,196.67 178.77,195.66 179.17,194.66 179.56,193.67 179.96,192.69 180.36,191.74 180.75,190.79 181.15,189.87 181.54,188.96 181.94,188.07 182.34,187.19 182.73,186.32 183.13,185.47 183.53,184.62 183.92,183.77 184.32,182.92 184.72,182.08 185.11,181.22 185.51,180.36 185.91,179.48 186.3,178.6 186.7,177.69 187.09,176.77 187.49,175.83 187.89,174.87 188.28,173.89 188.68,172.9 189.08,171.88 189.47,170.85 189.87,169.8 190.27,168.73 190.66,167.65 191.06,166.57 191.45,165.47 191.85,164.36 192.25,163.24 192.64,162.12 193.04,160.99 193.44,159.86 193.83,158.72 194.23,157.58 194.63,156.44 195.02,155.29 195.42,154.14 195.82,152.99 196.21,151.84 196.61,150.68 197,149.52 197.4,148.36 197.8,147.19 198.19,146.03 198.59,144.86 198.99,143.7 199.38,142.53 199.78,141.38 200.18,140.22 200.57,139.08 200.97,137.94 201.36,136.82 201.76,135.71 202.16,134.62 202.55,133.54 202.95,132.48 203.35,131.45 203.74,130.43 204.14,129.44 204.54,128.48 204.93,127.54 205.33,126.62 205.73,125.73 206.12,124.87 206.52,124.03 206.91,123.22 207.31,122.43 207.71,121.66 208.1,120.91 208.5,120.18 208.9,119.48 209.29,118.78 209.69,118.11 210.09,117.44 210.48,116.79 210.88,116.14 211.28,115.5 211.67,114.87 212.07,114.24 212.46,113.61 212.86,112.98 213.26,112.35 213.65,111.72 214.05,111.08 214.45,110.43 214.84,109.78 215.24,109.13 215.64,108.47 216.03,107.79 216.43,107.11 216.82,106.43 217.22,105.73 217.62,105.03 218.01,104.32 218.41,103.6 218.81,102.88 219.2,102.16 219.6,101.43 220,100.69 220.39,99.96 220.79,99.22 221.19,98.49 221.58,97.75 221.98,97.02 222.37,96.29 222.77,95.56 223.17,94.84 223.56,94.13 223.96,93.42 224.36,92.72 224.75,92.03 225.15,91.35 225.55,90.68 225.94,90.02 226.34,89.37 226.74,88.74 227.13,88.13 227.53,87.53 227.92,86.95 228.32,86.39 228.72,85.85 229.11,85.32 229.51,84.82 229.91,84.33 230.3,83.86 230.7,83.42 231.1,82.99 231.49,82.58 231.89,82.19 232.28,81.81 232.68,81.45 233.08,81.1 233.47,80.75 233.87,80.42 234.27,80.09 234.66,79.76 235.06,79.44 235.46,79.11 235.85,78.78 236.25,78.45 236.65,78.11 237.04,77.75 237.44,77.39 237.83,77.01 238.23,76.61 238.63,76.21 239.02,75.78 239.42,75.34 239.82,74.87 240.21,74.39 240.61,73.89 241.01,73.37 241.4,72.84 241.8,72.28 242.2,71.72 242.59,71.13 242.99,70.53 243.38,69.92 243.78,69.3 244.18,68.67 244.57,68.04 244.97,67.4 245.37,66.76 245.76,66.12 246.16,65.49 246.56,64.87 246.95,64.25 247.35,63.65 247.74,63.06 248.14,62.49 248.54,61.94 248.93,61.42 249.33,60.91 249.73,60.43 250.12,59.98 250.52,59.55 250.92,59.15 251.31,58.78 251.71,58.43 252.11,58.12 252.5,57.83 252.9,57.57 253.29,57.33 253.69,57.11 254.09,56.92 254.48,56.75 254.88,56.6 255.28,56.47 255.67,56.35 256.07,56.25 256.47,56.17 256.86,56.09 257.26,56.03 257.66,55.98 258.05,55.93 258.45,55.89 258.84,55.86 259.24,55.84 259.64,55.81 260.03,55.8 260.43,55.78 260.83,55.77 261.22,55.76 261.62,55.76" stroke-dasharray="none" stroke="rgb(255,127,0)" stroke-width="0.75" opacity="1" stroke-opacity="1" fill="none"/>
          </g>
          <g id="Fig:densplot_01.xyplot.lines.group.3.panel.1.1.1">
            <polyline id="Fig:densplot_01.xyplot.lines.group.3.panel.1.1.1.1" points="59.63,55.77 60.02,55.78 60.42,55.8 60.81,55.81 61.2,55.84 61.6,55.87 61.99,55.91 62.39,55.96 62.78,56.03 63.18,56.1 63.57,56.2 63.96,56.32 64.36,56.47 64.75,56.64 65.15,56.85 65.54,57.1 65.94,57.41 66.33,57.77 66.72,58.19 67.12,58.68 67.51,59.26 67.91,59.91 68.3,60.68 68.7,61.56 69.09,62.57 69.48,63.7 69.88,64.97 70.27,66.38 70.67,67.96 71.06,69.74 71.46,71.69 71.85,73.82 72.24,76.13 72.64,78.63 73.03,81.34 73.43,84.27 73.82,87.39 74.22,90.7 74.61,94.19 75,97.86 75.4,101.7 75.79,105.72 76.19,109.89 76.58,114.17 76.98,118.57 77.37,123.06 77.76,127.63 78.16,132.26 78.55,136.93 78.95,141.6 79.34,146.27 79.74,150.92 80.13,155.52 80.52,160.06 80.92,164.5 81.31,168.84 81.71,173.08 82.1,177.19 82.5,181.17 82.89,184.99 83.28,188.63 83.68,192.12 84.07,195.45 84.47,198.61 84.86,201.61 85.26,204.42 85.65,207.05 86.05,209.52 86.44,211.84 86.83,214 87.23,216.03 87.62,217.9 88.02,219.62 88.41,221.22 88.81,222.7 89.2,224.08 89.59,225.36 89.99,226.53 90.38,227.6 90.78,228.59 91.17,229.51 91.57,230.35 91.96,231.13 92.35,231.84 92.75,232.48 93.14,233.07 93.54,233.6 93.93,234.08 94.33,234.52 94.72,234.9 95.11,235.23 95.51,235.52 95.9,235.77 96.3,235.97 96.69,236.14 97.09,236.27 97.48,236.36 97.87,236.42 98.27,236.44 98.66,236.44 99.06,236.42 99.45,236.37 99.85,236.29 100.24,236.19 100.63,236.08 101.03,235.94 101.42,235.79 101.82,235.62 102.21,235.44 102.61,235.24 103,235.02 103.39,234.79 103.79,234.54 104.18,234.27 104.58,233.99 104.97,233.68 105.37,233.35 105.76,233.01 106.15,232.65 106.55,232.27 106.94,231.87 107.34,231.45 107.73,231.02 108.13,230.57 108.52,230.11 108.91,229.63 109.31,229.15 109.7,228.66 110.1,228.17 110.49,227.68 110.89,227.19 111.28,226.69 111.67,226.21 112.07,225.73 112.46,225.26 112.86,224.81 113.25,224.37 113.65,223.94 114.04,223.53 114.44,223.13 114.83,222.76 115.22,222.41 115.62,222.09 116.01,221.78 116.41,221.5 116.8,221.25 117.2,221.03 117.59,220.84 117.98,220.67 118.38,220.54 118.77,220.43 119.17,220.35 119.56,220.3 119.96,220.27 120.35,220.27 120.74,220.3 121.14,220.34 121.53,220.4 121.93,220.47 122.32,220.56 122.72,220.65 123.11,220.75 123.5,220.85 123.9,220.94 124.29,221.04 124.69,221.13 125.08,221.21 125.48,221.29 125.87,221.36 126.26,221.43 126.66,221.49 127.05,221.55 127.45,221.62 127.84,221.68 128.24,221.75 128.63,221.83 129.02,221.93 129.42,222.04 129.81,222.17 130.21,222.32 130.6,222.5 131,222.71 131.39,222.94 131.78,223.21 132.18,223.5 132.57,223.82 132.97,224.16 133.36,224.53 133.76,224.93 134.15,225.34 134.54,225.77 134.94,226.22 135.33,226.67 135.73,227.12 136.12,227.58 136.52,228.03 136.91,228.48 137.3,228.91 137.7,229.33 138.09,229.73 138.49,230.11 138.88,230.46 139.28,230.79 139.67,231.08 140.07,231.34 140.46,231.57 140.85,231.77 141.25,231.93 141.64,232.05 142.04,232.13 142.43,232.19 142.83,232.21 143.22,232.2 143.61,232.15 144.01,232.08 144.4,231.98 144.8,231.85 145.19,231.71 145.59,231.55 145.98,231.36 146.37,231.17 146.77,230.96 147.16,230.75 147.56,230.54 147.95,230.32 148.35,230.1 148.74,229.88 149.13,229.68 149.53,229.48 149.92,229.3 150.32,229.13 150.71,228.97 151.11,228.84 151.5,228.74 151.89,228.66 152.29,228.6 152.68,228.58 153.08,228.58 153.47,228.63 153.87,228.7 154.26,228.81 154.65,228.95 155.05,229.12 155.44,229.32 155.84,229.55 156.23,229.81 156.63,230.09 157.02,230.4 157.41,230.71 157.81,231.04 158.2,231.38 158.6,231.72 158.99,232.06 159.39,232.38 159.78,232.7 160.17,232.99 160.57,233.25 160.96,233.48 161.36,233.68 161.75,233.83 162.15,233.94 162.54,234 162.93,234 163.33,233.95 163.72,233.83 164.12,233.66 164.51,233.43 164.91,233.14 165.3,232.78 165.69,232.36 166.09,231.88 166.48,231.34 166.88,230.75 167.27,230.11 167.67,229.42 168.06,228.67 168.46,227.88 168.85,227.05 169.24,226.18 169.64,225.28 170.03,224.35 170.43,223.4 170.82,222.42 171.22,221.43 171.61,220.43 172,219.42 172.4,218.41 172.79,217.39 173.19,216.38 173.58,215.38 173.98,214.39 174.37,213.4 174.76,212.43 175.16,211.48 175.55,210.54 175.95,209.61 176.34,208.7 176.74,207.79 177.13,206.9 177.52,206.02 177.92,205.14 178.31,204.27 178.71,203.39 179.1,202.52 179.5,201.63 179.89,200.74 180.28,199.83 180.68,198.9 181.07,197.96 181.47,196.99 181.86,196.01 182.26,195 182.65,193.97 183.04,192.91 183.44,191.83 183.83,190.73 184.23,189.6 184.62,188.46 185.02,187.3 185.41,186.12 185.8,184.92 186.2,183.72 186.59,182.51 186.99,181.29 187.38,180.07 187.78,178.84 188.17,177.62 188.56,176.4 188.96,175.18 189.35,173.96 189.75,172.74 190.14,171.54 190.54,170.33 190.93,169.13 191.32,167.93 191.72,166.74 192.11,165.54 192.51,164.35 192.9,163.16 193.3,161.97 193.69,160.78 194.09,159.58 194.48,158.39 194.87,157.19 195.27,155.99 195.66,154.79 196.06,153.59 196.45,152.39 196.85,151.19 197.24,149.99 197.63,148.79 198.03,147.59 198.42,146.39 198.82,145.2 199.21,144.01 199.61,142.83 200,141.65 200.39,140.48 200.79,139.32 201.18,138.17 201.58,137.02 201.97,135.89 202.37,134.77 202.76,133.66 203.15,132.56 203.55,131.47 203.94,130.4 204.34,129.33 204.73,128.29 205.13,127.25 205.52,126.23 205.91,125.23 206.31,124.23 206.7,123.25 207.1,122.29 207.49,121.33 207.89,120.39 208.28,119.47 208.67,118.55 209.07,117.65 209.46,116.76 209.86,115.89 210.25,115.02 210.65,114.17 211.04,113.34 211.43,112.51 211.83,111.7 212.22,110.91 212.62,110.13 213.01,109.36 213.41,108.6 213.8,107.85 214.19,107.12 214.59,106.41 214.98,105.7 215.38,105 215.77,104.31 216.17,103.64 216.56,102.97 216.95,102.31 217.35,101.66 217.74,101.01 218.14,100.37 218.53,99.73 218.93,99.1 219.32,98.47 219.71,97.85 220.11,97.23 220.5,96.61 220.9,96 221.29,95.4 221.69,94.79 222.08,94.2 222.48,93.61 222.87,93.02 223.26,92.44 223.66,91.87 224.05,91.3 224.45,90.74 224.84,90.19 225.24,89.64 225.63,89.11 226.02,88.58 226.42,88.05 226.81,87.54 227.21,87.03 227.6,86.53 228,86.03 228.39,85.54 228.78,85.05 229.18,84.56 229.57,84.08 229.97,83.6 230.36,83.11 230.76,82.63 231.15,82.15 231.54,81.66 231.94,81.18 232.33,80.69 232.73,80.19 233.12,79.69 233.52,79.19 233.91,78.69 234.3,78.18 234.7,77.67 235.09,77.16 235.49,76.64 235.88,76.13 236.28,75.61 236.67,75.1 237.06,74.59 237.46,74.07 237.85,73.57 238.25,73.06 238.64,72.56 239.04,72.06 239.43,71.56 239.82,71.06 240.22,70.57 240.61,70.08 241.01,69.59 241.4,69.1 241.8,68.62 242.19,68.13 242.58,67.64 242.98,67.15 243.37,66.65 243.77,66.16 244.16,65.66 244.56,65.17 244.95,64.67 245.34,64.18 245.74,63.69 246.13,63.2 246.53,62.72 246.92,62.25 247.32,61.78 247.71,61.33 248.1,60.89 248.5,60.46 248.89,60.05 249.29,59.66 249.68,59.29 250.08,58.93 250.47,58.6 250.87,58.3 251.26,58.01 251.65,57.74 252.05,57.5 252.44,57.28 252.84,57.07 253.23,56.89 253.63,56.73 254.02,56.59 254.41,56.46 254.81,56.35 255.2,56.25 255.6,56.17 255.99,56.09 256.39,56.03 256.78,55.98 257.17,55.93 257.57,55.89 257.96,55.86 258.36,55.84 258.75,55.82 259.15,55.8 259.54,55.78 259.93,55.77 260.33,55.76 260.72,55.76 261.12,55.75" stroke-dasharray="none" stroke="rgb(166,86,40)" stroke-width="0.75" opacity="1" stroke-opacity="1" fill="none"/>
          </g>
          <g id="Fig:densplot_01.xyplot.lines.group.4.panel.1.1.1">
            <polyline id="Fig:densplot_01.xyplot.lines.group.4.panel.1.1.1.1" points="59,55.77 59.4,55.78 59.8,55.8 60.19,55.82 60.59,55.85 60.99,55.88 61.38,55.93 61.78,55.98 62.17,56.05 62.57,56.13 62.97,56.23 63.36,56.35 63.76,56.5 64.15,56.68 64.55,56.9 64.95,57.17 65.34,57.48 65.74,57.85 66.13,58.28 66.53,58.78 66.93,59.38 67.32,60.07 67.72,60.86 68.11,61.76 68.51,62.78 68.91,63.94 69.3,65.27 69.7,66.76 70.09,68.41 70.49,70.23 70.89,72.24 71.28,74.45 71.68,76.89 72.08,79.54 72.47,82.4 72.87,85.46 73.26,88.73 73.66,92.21 74.06,95.94 74.45,99.87 74.85,103.97 75.24,108.25 75.64,112.69 76.04,117.27 76.43,122.02 76.83,126.86 77.22,131.79 77.62,136.79 78.02,141.83 78.41,146.89 78.81,151.95 79.2,156.99 79.6,161.98 80,166.9 80.39,171.74 80.79,176.47 81.19,181.07 81.58,185.52 81.98,189.83 82.37,193.98 82.77,197.97 83.17,201.78 83.56,205.39 83.96,208.8 84.35,212.03 84.75,215.08 85.15,217.95 85.54,220.63 85.94,223.12 86.33,225.42 86.73,227.55 87.13,229.52 87.52,231.34 87.92,233 88.31,234.5 88.71,235.85 89.11,237.08 89.5,238.18 89.9,239.16 90.3,240.03 90.69,240.78 91.09,241.43 91.48,241.99 91.88,242.47 92.28,242.87 92.67,243.2 93.07,243.46 93.46,243.65 93.86,243.79 94.26,243.88 94.65,243.93 95.05,243.94 95.44,243.91 95.84,243.84 96.24,243.75 96.63,243.64 97.03,243.5 97.42,243.34 97.82,243.16 98.22,242.96 98.61,242.74 99.01,242.5 99.4,242.24 99.8,241.97 100.2,241.68 100.59,241.36 100.99,241.03 101.39,240.67 101.78,240.29 102.18,239.89 102.57,239.47 102.97,239.01 103.37,238.54 103.76,238.03 104.16,237.51 104.55,236.96 104.95,236.38 105.35,235.78 105.74,235.16 106.14,234.52 106.53,233.86 106.93,233.19 107.33,232.5 107.72,231.8 108.12,231.1 108.51,230.39 108.91,229.69 109.31,228.99 109.7,228.29 110.1,227.61 110.5,226.94 110.89,226.29 111.29,225.67 111.68,225.06 112.08,224.47 112.48,223.92 112.87,223.39 113.27,222.9 113.66,222.43 114.06,221.99 114.46,221.58 114.85,221.2 115.25,220.85 115.64,220.53 116.04,220.24 116.44,219.97 116.83,219.73 117.23,219.53 117.62,219.35 118.02,219.19 118.42,219.07 118.81,218.97 119.21,218.89 119.61,218.85 120,218.84 120.4,218.86 120.79,218.9 121.19,218.97 121.59,219.07 121.98,219.19 122.38,219.34 122.77,219.52 123.17,219.71 123.57,219.91 123.96,220.14 124.36,220.37 124.75,220.61 125.15,220.85 125.55,221.09 125.94,221.33 126.34,221.55 126.73,221.77 127.13,221.96 127.53,222.14 127.92,222.29 128.32,222.42 128.71,222.53 129.11,222.6 129.51,222.65 129.9,222.67 130.3,222.66 130.7,222.63 131.09,222.57 131.49,222.49 131.88,222.39 132.28,222.27 132.68,222.14 133.07,222 133.47,221.86 133.86,221.71 134.26,221.56 134.66,221.42 135.05,221.3 135.45,221.18 135.84,221.08 136.24,221 136.64,220.94 137.03,220.91 137.43,220.9 137.82,220.93 138.22,220.97 138.62,221.05 139.01,221.16 139.41,221.31 139.81,221.47 140.2,221.67 140.6,221.88 140.99,222.12 141.39,222.39 141.79,222.67 142.18,222.96 142.58,223.27 142.97,223.59 143.37,223.91 143.77,224.24 144.16,224.56 144.56,224.88 144.95,225.2 145.35,225.51 145.75,225.81 146.14,226.1 146.54,226.37 146.93,226.63 147.33,226.88 147.73,227.11 148.12,227.33 148.52,227.53 148.92,227.72 149.31,227.9 149.71,228.06 150.1,228.21 150.5,228.36 150.9,228.49 151.29,228.61 151.69,228.73 152.08,228.83 152.48,228.94 152.88,229.03 153.27,229.12 153.67,229.2 154.06,229.28 154.46,229.35 154.86,229.41 155.25,229.46 155.65,229.5 156.04,229.52 156.44,229.53 156.84,229.53 157.23,229.5 157.63,229.46 158.02,229.39 158.42,229.29 158.82,229.16 159.21,229.01 159.61,228.83 160.01,228.61 160.4,228.35 160.8,228.06 161.19,227.73 161.59,227.36 161.99,226.96 162.38,226.51 162.78,226.03 163.17,225.51 163.57,224.95 163.97,224.36 164.36,223.74 164.76,223.08 165.15,222.4 165.55,221.68 165.95,220.94 166.34,220.18 166.74,219.4 167.13,218.61 167.53,217.79 167.93,216.96 168.32,216.12 168.72,215.27 169.12,214.41 169.51,213.54 169.91,212.67 170.3,211.79 170.7,210.91 171.1,210.01 171.49,209.12 171.89,208.22 172.28,207.31 172.68,206.4 173.08,205.48 173.47,204.56 173.87,203.63 174.26,202.7 174.66,201.76 175.06,200.81 175.45,199.86 175.85,198.91 176.24,197.96 176.64,197 177.04,196.05 177.43,195.1 177.83,194.16 178.23,193.22 178.62,192.29 179.02,191.38 179.41,190.47 179.81,189.59 180.21,188.72 180.6,187.86 181,187.03 181.39,186.21 181.79,185.42 182.19,184.64 182.58,183.88 182.98,183.13 183.37,182.4 183.77,181.68 184.17,180.97 184.56,180.26 184.96,179.56 185.35,178.85 185.75,178.14 186.15,177.41 186.54,176.68 186.94,175.92 187.33,175.14 187.73,174.34 188.13,173.51 188.52,172.66 188.92,171.77 189.32,170.85 189.71,169.89 190.11,168.9 190.5,167.87 190.9,166.82 191.3,165.73 191.69,164.61 192.09,163.47 192.48,162.29 192.88,161.1 193.28,159.89 193.67,158.66 194.07,157.41 194.46,156.16 194.86,154.9 195.26,153.64 195.65,152.38 196.05,151.13 196.44,149.88 196.84,148.64 197.24,147.41 197.63,146.2 198.03,145.01 198.43,143.83 198.82,142.67 199.22,141.54 199.61,140.44 200.01,139.36 200.41,138.3 200.8,137.26 201.2,136.26 201.59,135.28 201.99,134.33 202.39,133.4 202.78,132.49 203.18,131.61 203.57,130.75 203.97,129.91 204.37,129.1 204.76,128.29 205.16,127.51 205.55,126.74 205.95,125.98 206.35,125.24 206.74,124.5 207.14,123.78 207.54,123.06 207.93,122.34 208.33,121.63 208.72,120.93 209.12,120.22 209.52,119.52 209.91,118.82 210.31,118.12 210.7,117.41 211.1,116.71 211.5,116 211.89,115.3 212.29,114.59 212.68,113.87 213.08,113.16 213.48,112.44 213.87,111.71 214.27,110.99 214.66,110.25 215.06,109.51 215.46,108.77 215.85,108.02 216.25,107.26 216.64,106.5 217.04,105.73 217.44,104.95 217.83,104.17 218.23,103.38 218.63,102.59 219.02,101.8 219.42,101 219.81,100.2 220.21,99.41 220.61,98.61 221,97.83 221.4,97.05 221.79,96.28 222.19,95.52 222.59,94.77 222.98,94.04 223.38,93.33 223.77,92.64 224.17,91.97 224.57,91.32 224.96,90.69 225.36,90.09 225.75,89.51 226.15,88.95 226.55,88.42 226.94,87.91 227.34,87.42 227.74,86.95 228.13,86.5 228.53,86.07 228.92,85.65 229.32,85.25 229.72,84.85 230.11,84.48 230.51,84.11 230.9,83.74 231.3,83.39 231.7,83.03 232.09,82.68 232.49,82.33 232.88,81.99 233.28,81.64 233.68,81.29 234.07,80.93 234.47,80.58 234.86,80.22 235.26,79.85 235.66,79.48 236.05,79.1 236.45,78.71 236.85,78.32 237.24,77.92 237.64,77.5 238.03,77.08 238.43,76.64 238.83,76.19 239.22,75.72 239.62,75.24 240.01,74.74 240.41,74.23 240.81,73.7 241.2,73.15 241.6,72.59 241.99,72.01 242.39,71.42 242.79,70.81 243.18,70.18 243.58,69.55 243.97,68.91 244.37,68.25 244.77,67.6 245.16,66.94 245.56,66.28 245.95,65.62 246.35,64.97 246.75,64.33 247.14,63.71 247.54,63.1 247.94,62.51 248.33,61.94 248.73,61.39 249.12,60.87 249.52,60.37 249.92,59.91 250.31,59.48 250.71,59.07 251.1,58.69 251.5,58.34 251.9,58.02 252.29,57.74 252.69,57.48 253.08,57.24 253.48,57.03 253.88,56.84 254.27,56.68 254.67,56.53 255.06,56.41 255.46,56.3 255.86,56.2 256.25,56.12 256.65,56.05 257.05,56 257.44,55.95 257.84,55.91 258.23,55.87 258.63,55.84 259.03,55.82 259.42,55.8 259.82,55.79 260.21,55.78 260.61,55.77 261.01,55.76 261.4,55.75" stroke-dasharray="none" stroke="rgb(77,175,74)" stroke-width="0.75" opacity="1" stroke-opacity="1" fill="none"/>
          </g>
          <g id="Fig:densplot_01.xyplot.lines.group.5.panel.1.1.1">
            <polyline id="Fig:densplot_01.xyplot.lines.group.5.panel.1.1.1.1" points="59.07,55.78 59.46,55.79 59.86,55.81 60.26,55.84 60.65,55.87 61.05,55.91 61.45,55.96 61.84,56.02 62.24,56.09 62.64,56.19 63.03,56.31 63.43,56.45 63.83,56.63 64.22,56.83 64.62,57.08 65.02,57.38 65.41,57.75 65.81,58.17 66.21,58.67 66.6,59.24 67,59.91 67.4,60.7 67.79,61.6 68.19,62.63 68.58,63.8 68.98,65.11 69.38,66.58 69.77,68.26 70.17,70.13 70.57,72.19 70.96,74.45 71.36,76.92 71.76,79.6 72.15,82.55 72.55,85.73 72.95,89.13 73.34,92.75 73.74,96.58 74.14,100.63 74.53,104.92 74.93,109.4 75.33,114.05 75.72,118.85 76.12,123.8 76.52,128.87 76.91,134.05 77.31,139.31 77.71,144.61 78.1,149.94 78.5,155.26 78.89,160.57 79.29,165.81 79.69,170.98 80.08,176.05 80.48,181 80.88,185.83 81.27,190.5 81.67,194.98 82.07,199.27 82.46,203.37 82.86,207.27 83.26,210.98 83.65,214.47 84.05,217.73 84.45,220.76 84.84,223.59 85.24,226.21 85.64,228.64 86.03,230.87 86.43,232.89 86.83,234.71 87.22,236.36 87.62,237.84 88.02,239.18 88.41,240.36 88.81,241.38 89.2,242.26 89.6,243.02 90,243.67 90.39,244.21 90.79,244.66 91.19,245 91.58,245.26 91.98,245.44 92.38,245.55 92.77,245.6 93.17,245.59 93.57,245.52 93.96,245.4 94.36,245.24 94.76,245.04 95.15,244.81 95.55,244.54 95.95,244.24 96.34,243.92 96.74,243.57 97.14,243.2 97.53,242.81 97.93,242.4 98.33,241.98 98.72,241.53 99.12,241.08 99.51,240.61 99.91,240.14 100.31,239.65 100.7,239.15 101.1,238.63 101.5,238.11 101.89,237.58 102.29,237.05 102.69,236.5 103.08,235.94 103.48,235.37 103.88,234.79 104.27,234.2 104.67,233.6 105.07,232.98 105.46,232.36 105.86,231.72 106.26,231.06 106.65,230.4 107.05,229.72 107.45,229.03 107.84,228.33 108.24,227.62 108.64,226.9 109.03,226.17 109.43,225.44 109.82,224.71 110.22,223.98 110.62,223.26 111.01,222.55 111.41,221.85 111.81,221.17 112.2,220.5 112.6,219.86 113,219.26 113.39,218.68 113.79,218.14 114.19,217.63 114.58,217.16 114.98,216.73 115.38,216.35 115.77,216.02 116.17,215.73 116.57,215.48 116.96,215.27 117.36,215.11 117.76,215 118.15,214.92 118.55,214.88 118.95,214.87 119.34,214.89 119.74,214.94 120.13,215.02 120.53,215.11 120.93,215.21 121.32,215.33 121.72,215.45 122.12,215.57 122.51,215.69 122.91,215.81 123.31,215.91 123.7,216 124.1,216.07 124.5,216.13 124.89,216.16 125.29,216.18 125.69,216.17 126.08,216.14 126.48,216.09 126.88,216.02 127.27,215.93 127.67,215.83 128.07,215.72 128.46,215.59 128.86,215.47 129.26,215.34 129.65,215.21 130.05,215.09 130.44,214.98 130.84,214.88 131.24,214.79 131.63,214.72 132.03,214.68 132.43,214.66 132.82,214.66 133.22,214.68 133.62,214.73 134.01,214.8 134.41,214.9 134.81,215.03 135.2,215.17 135.6,215.34 136,215.52 136.39,215.72 136.79,215.94 137.19,216.17 137.58,216.41 137.98,216.67 138.38,216.93 138.77,217.19 139.17,217.46 139.56,217.74 139.96,218.01 140.36,218.29 140.75,218.56 141.15,218.84 141.55,219.1 141.94,219.37 142.34,219.62 142.74,219.88 143.13,220.12 143.53,220.36 143.93,220.59 144.32,220.81 144.72,221.02 145.12,221.22 145.51,221.42 145.91,221.61 146.31,221.79 146.7,221.97 147.1,222.14 147.5,222.31 147.89,222.48 148.29,222.65 148.69,222.82 149.08,223 149.48,223.17 149.87,223.35 150.27,223.54 150.67,223.73 151.06,223.93 151.46,224.13 151.86,224.33 152.25,224.54 152.65,224.75 153.05,224.96 153.44,225.16 153.84,225.36 154.24,225.55 154.63,225.72 155.03,225.89 155.43,226.04 155.82,226.17 156.22,226.27 156.62,226.35 157.01,226.41 157.41,226.45 157.81,226.46 158.2,226.44 158.6,226.39 159,226.31 159.39,226.21 159.79,226.09 160.18,225.95 160.58,225.78 160.98,225.6 161.37,225.39 161.77,225.18 162.17,224.95 162.56,224.72 162.96,224.47 163.36,224.22 163.75,223.96 164.15,223.7 164.55,223.43 164.94,223.16 165.34,222.88 165.74,222.6 166.13,222.31 166.53,222.01 166.93,221.7 167.32,221.37 167.72,221.03 168.12,220.66 168.51,220.27 168.91,219.85 169.31,219.4 169.7,218.92 170.1,218.4 170.49,217.82 170.89,217.21 171.29,216.55 171.68,215.84 172.08,215.09 172.48,214.28 172.87,213.42 173.27,212.51 173.67,211.56 174.06,210.57 174.46,209.55 174.86,208.49 175.25,207.39 175.65,206.28 176.05,205.15 176.44,204 176.84,202.86 177.24,201.71 177.63,200.57 178.03,199.44 178.43,198.33 178.82,197.24 179.22,196.18 179.62,195.13 180.01,194.13 180.41,193.15 180.8,192.2 181.2,191.27 181.6,190.38 181.99,189.51 182.39,188.67 182.79,187.85 183.18,187.04 183.58,186.25 183.98,185.47 184.37,184.69 184.77,183.91 185.17,183.13 185.56,182.34 185.96,181.55 186.36,180.73 186.75,179.9 187.15,179.04 187.55,178.16 187.94,177.24 188.34,176.3 188.74,175.33 189.13,174.33 189.53,173.29 189.93,172.22 190.32,171.11 190.72,169.97 191.11,168.8 191.51,167.6 191.91,166.37 192.3,165.11 192.7,163.82 193.1,162.52 193.49,161.2 193.89,159.86 194.29,158.5 194.68,157.14 195.08,155.76 195.48,154.39 195.87,153.01 196.27,151.64 196.67,150.27 197.06,148.91 197.46,147.57 197.86,146.23 198.25,144.92 198.65,143.62 199.05,142.34 199.44,141.1 199.84,139.87 200.24,138.68 200.63,137.51 201.03,136.37 201.42,135.28 201.82,134.21 202.22,133.18 202.61,132.18 203.01,131.22 203.41,130.29 203.8,129.4 204.2,128.55 204.6,127.72 204.99,126.93 205.39,126.16 205.79,125.42 206.18,124.71 206.58,124.03 206.98,123.36 207.37,122.71 207.77,122.08 208.17,121.47 208.56,120.86 208.96,120.26 209.36,119.67 209.75,119.09 210.15,118.5 210.54,117.92 210.94,117.33 211.34,116.74 211.73,116.14 212.13,115.54 212.53,114.92 212.92,114.3 213.32,113.66 213.72,113.01 214.11,112.34 214.51,111.66 214.91,110.97 215.3,110.26 215.7,109.53 216.1,108.79 216.49,108.04 216.89,107.27 217.29,106.48 217.68,105.69 218.08,104.88 218.48,104.06 218.87,103.23 219.27,102.39 219.67,101.55 220.06,100.7 220.46,99.86 220.85,99.01 221.25,98.17 221.65,97.34 222.04,96.51 222.44,95.69 222.84,94.88 223.23,94.09 223.63,93.31 224.03,92.55 224.42,91.8 224.82,91.08 225.22,90.37 225.61,89.69 226.01,89.02 226.41,88.38 226.8,87.75 227.2,87.15 227.6,86.56 227.99,86 228.39,85.45 228.79,84.92 229.18,84.41 229.58,83.92 229.98,83.44 230.37,82.97 230.77,82.52 231.16,82.09 231.56,81.66 231.96,81.25 232.35,80.86 232.75,80.47 233.15,80.1 233.54,79.73 233.94,79.38 234.34,79.03 234.73,78.7 235.13,78.37 235.53,78.05 235.92,77.73 236.32,77.41 236.72,77.1 237.11,76.79 237.51,76.47 237.91,76.15 238.3,75.82 238.7,75.48 239.1,75.13 239.49,74.77 239.89,74.39 240.29,73.99 240.68,73.57 241.08,73.13 241.47,72.67 241.87,72.19 242.27,71.69 242.66,71.16 243.06,70.61 243.46,70.05 243.85,69.46 244.25,68.86 244.65,68.25 245.04,67.62 245.44,66.99 245.84,66.35 246.23,65.72 246.63,65.08 247.03,64.45 247.42,63.83 247.82,63.23 248.22,62.64 248.61,62.07 249.01,61.52 249.41,61 249.8,60.5 250.2,60.03 250.6,59.59 250.99,59.18 251.39,58.79 251.78,58.44 252.18,58.12 252.58,57.82 252.97,57.55 253.37,57.31 253.77,57.09 254.16,56.9 254.56,56.73 254.96,56.58 255.35,56.45 255.75,56.34 256.15,56.24 256.54,56.15 256.94,56.08 257.34,56.02 257.73,55.97 258.13,55.92 258.53,55.89 258.92,55.86 259.32,55.83 259.72,55.81 260.11,55.79 260.51,55.78 260.91,55.77 261.3,55.76 261.7,55.75" stroke-dasharray="none" stroke="rgb(247,129,191)" stroke-width="0.75" opacity="1" stroke-opacity="1" fill="none"/>
          </g>
          <g id="Fig:densplot_01.xyplot.lines.group.6.panel.1.1.1">
            <polyline id="Fig:densplot_01.xyplot.lines.group.6.panel.1.1.1.1" points="59,55.78 59.4,55.79 59.79,55.81 60.19,55.83 60.59,55.86 60.98,55.9 61.38,55.94 61.78,56 62.17,56.07 62.57,56.16 62.97,56.27 63.36,56.4 63.76,56.56 64.16,56.75 64.55,56.98 64.95,57.26 65.34,57.6 65.74,57.99 66.14,58.44 66.53,58.97 66.93,59.6 67.33,60.32 67.72,61.15 68.12,62.09 68.52,63.16 68.91,64.36 69.31,65.75 69.71,67.29 70.1,69 70.5,70.89 70.9,72.97 71.29,75.24 71.69,77.75 72.09,80.47 72.48,83.4 72.88,86.54 73.28,89.89 73.67,93.45 74.07,97.24 74.47,101.23 74.86,105.41 75.26,109.76 75.65,114.27 76.05,118.92 76.45,123.71 76.84,128.61 77.24,133.6 77.64,138.64 78.03,143.72 78.43,148.82 78.83,153.92 79.22,158.98 79.62,163.98 80.02,168.91 80.41,173.74 80.81,178.47 81.21,183.05 81.6,187.46 82,191.72 82.4,195.81 82.79,199.72 83.19,203.45 83.59,206.97 83.98,210.27 84.38,213.39 84.78,216.31 85.17,219.05 85.57,221.61 85.96,223.98 86.36,226.15 86.76,228.17 87.15,230.04 87.55,231.76 87.95,233.36 88.34,234.82 88.74,236.15 89.14,237.37 89.53,238.51 89.93,239.55 90.33,240.51 90.72,241.39 91.12,242.19 91.52,242.92 91.91,243.59 92.31,244.19 92.71,244.74 93.1,245.23 93.5,245.64 93.9,245.99 94.29,246.29 94.69,246.52 95.09,246.7 95.48,246.81 95.88,246.84 96.27,246.81 96.67,246.72 97.07,246.57 97.46,246.36 97.86,246.1 98.26,245.76 98.65,245.38 99.05,244.95 99.45,244.47 99.84,243.96 100.24,243.42 100.64,242.84 101.03,242.24 101.43,241.63 101.83,241 102.22,240.37 102.62,239.73 103.02,239.1 103.41,238.47 103.81,237.85 104.21,237.24 104.6,236.64 105,236.05 105.4,235.48 105.79,234.93 106.19,234.4 106.59,233.88 106.98,233.37 107.38,232.88 107.77,232.4 108.17,231.94 108.57,231.49 108.96,231.05 109.36,230.63 109.76,230.21 110.15,229.8 110.55,229.39 110.95,229 111.34,228.6 111.74,228.22 112.14,227.84 112.53,227.46 112.93,227.09 113.33,226.72 113.72,226.36 114.12,226 114.52,225.64 114.91,225.29 115.31,224.94 115.71,224.6 116.1,224.26 116.5,223.94 116.9,223.61 117.29,223.3 117.69,223 118.08,222.71 118.48,222.43 118.88,222.16 119.27,221.9 119.67,221.67 120.07,221.45 120.46,221.24 120.86,221.06 121.26,220.89 121.65,220.75 122.05,220.62 122.45,220.52 122.84,220.44 123.24,220.38 123.64,220.35 124.03,220.33 124.43,220.33 124.83,220.36 125.22,220.4 125.62,220.47 126.02,220.54 126.41,220.64 126.81,220.75 127.21,220.87 127.6,221 128,221.14 128.39,221.3 128.79,221.46 129.19,221.62 129.58,221.79 129.98,221.97 130.38,222.15 130.77,222.33 131.17,222.51 131.57,222.7 131.96,222.89 132.36,223.08 132.76,223.27 133.15,223.46 133.55,223.66 133.95,223.85 134.34,224.05 134.74,224.25 135.14,224.46 135.53,224.66 135.93,224.87 136.33,225.09 136.72,225.3 137.12,225.52 137.52,225.74 137.91,225.96 138.31,226.18 138.7,226.4 139.1,226.62 139.5,226.83 139.89,227.04 140.29,227.25 140.69,227.45 141.08,227.63 141.48,227.81 141.88,227.97 142.27,228.12 142.67,228.25 143.07,228.36 143.46,228.45 143.86,228.52 144.26,228.57 144.65,228.59 145.05,228.58 145.45,228.56 145.84,228.51 146.24,228.43 146.64,228.32 147.03,228.19 147.43,228.04 147.83,227.87 148.22,227.69 148.62,227.48 149.01,227.27 149.41,227.04 149.81,226.8 150.2,226.57 150.6,226.33 151,226.09 151.39,225.86 151.79,225.64 152.19,225.43 152.58,225.23 152.98,225.04 153.38,224.87 153.77,224.72 154.17,224.58 154.57,224.46 154.96,224.35 155.36,224.25 155.76,224.17 156.15,224.09 156.55,224.02 156.95,223.95 157.34,223.88 157.74,223.81 158.14,223.72 158.53,223.62 158.93,223.5 159.32,223.36 159.72,223.2 160.12,223.01 160.51,222.78 160.91,222.51 161.31,222.21 161.7,221.87 162.1,221.49 162.5,221.06 162.89,220.59 163.29,220.08 163.69,219.52 164.08,218.92 164.48,218.28 164.88,217.61 165.27,216.9 165.67,216.15 166.07,215.37 166.46,214.57 166.86,213.74 167.26,212.89 167.65,212.03 168.05,211.15 168.45,210.26 168.84,209.37 169.24,208.47 169.64,207.58 170.03,206.69 170.43,205.8 170.82,204.92 171.22,204.05 171.62,203.2 172.01,202.35 172.41,201.52 172.81,200.7 173.2,199.9 173.6,199.11 174,198.33 174.39,197.56 174.79,196.81 175.19,196.06 175.58,195.32 175.98,194.59 176.38,193.86 176.77,193.14 177.17,192.42 177.57,191.71 177.96,191 178.36,190.28 178.76,189.57 179.15,188.86 179.55,188.15 179.95,187.43 180.34,186.72 180.74,186 181.13,185.28 181.53,184.56 181.93,183.83 182.32,183.1 182.72,182.37 183.12,181.63 183.51,180.88 183.91,180.13 184.31,179.36 184.7,178.59 185.1,177.8 185.5,177 185.89,176.19 186.29,175.36 186.69,174.52 187.08,173.65 187.48,172.77 187.88,171.87 188.27,170.95 188.67,170.02 189.07,169.06 189.46,168.08 189.86,167.09 190.26,166.08 190.65,165.05 191.05,164.01 191.44,162.95 191.84,161.88 192.24,160.8 192.63,159.7 193.03,158.6 193.43,157.5 193.82,156.39 194.22,155.27 194.62,154.16 195.01,153.04 195.41,151.93 195.81,150.83 196.2,149.73 196.6,148.64 197,147.56 197.39,146.49 197.79,145.44 198.19,144.39 198.58,143.36 198.98,142.35 199.38,141.35 199.77,140.37 200.17,139.41 200.57,138.46 200.96,137.52 201.36,136.6 201.75,135.7 202.15,134.81 202.55,133.93 202.94,133.07 203.34,132.21 203.74,131.37 204.13,130.54 204.53,129.72 204.93,128.91 205.32,128.11 205.72,127.31 206.12,126.53 206.51,125.75 206.91,124.98 207.31,124.21 207.7,123.45 208.1,122.7 208.5,121.95 208.89,121.21 209.29,120.47 209.69,119.74 210.08,119.02 210.48,118.3 210.88,117.58 211.27,116.87 211.67,116.17 212.06,115.47 212.46,114.77 212.86,114.08 213.25,113.39 213.65,112.7 214.05,112.01 214.44,111.32 214.84,110.63 215.24,109.95 215.63,109.26 216.03,108.57 216.43,107.87 216.82,107.17 217.22,106.47 217.62,105.76 218.01,105.05 218.41,104.33 218.81,103.6 219.2,102.88 219.6,102.14 220,101.4 220.39,100.66 220.79,99.92 221.19,99.17 221.58,98.43 221.98,97.68 222.37,96.94 222.77,96.19 223.17,95.46 223.56,94.73 223.96,94 224.36,93.29 224.75,92.58 225.15,91.88 225.55,91.2 225.94,90.53 226.34,89.88 226.74,89.24 227.13,88.62 227.53,88.01 227.93,87.43 228.32,86.86 228.72,86.31 229.12,85.78 229.51,85.27 229.91,84.78 230.31,84.3 230.7,83.84 231.1,83.4 231.5,82.97 231.89,82.56 232.29,82.16 232.69,81.77 233.08,81.39 233.48,81.03 233.87,80.66 234.27,80.3 234.67,79.95 235.06,79.6 235.46,79.25 235.86,78.89 236.25,78.53 236.65,78.17 237.05,77.8 237.44,77.43 237.84,77.04 238.24,76.64 238.63,76.23 239.03,75.8 239.43,75.36 239.82,74.9 240.22,74.42 240.62,73.93 241.01,73.41 241.41,72.88 241.81,72.33 242.2,71.76 242.6,71.17 243,70.57 243.39,69.95 243.79,69.32 244.18,68.68 244.58,68.02 244.98,67.37 245.37,66.71 245.77,66.05 246.17,65.4 246.56,64.75 246.96,64.11 247.36,63.49 247.75,62.88 248.15,62.3 248.55,61.73 248.94,61.19 249.34,60.67 249.74,60.19 250.13,59.73 250.53,59.31 250.93,58.91 251.32,58.54 251.72,58.2 252.12,57.9 252.51,57.62 252.91,57.37 253.31,57.14 253.7,56.94 254.1,56.76 254.49,56.61 254.89,56.47 255.29,56.35 255.68,56.25 256.08,56.16 256.48,56.09 256.87,56.02 257.27,55.97 257.67,55.93 258.06,55.89 258.46,55.86 258.86,55.83 259.25,55.81 259.65,55.79 260.05,55.78 260.44,55.77 260.84,55.76 261.24,55.75 261.63,55.75" stroke-dasharray="none" stroke="rgb(55,126,184)" stroke-width="0.75" opacity="1" stroke-opacity="1" fill="none"/>
          </g>
          <g id="Fig:densplot_01.xyplot.lines.group.7.panel.1.1.1">
            <polyline id="Fig:densplot_01.xyplot.lines.group.7.panel.1.1.1.1" points="59,55.79 59.4,55.81 59.8,55.83 60.19,55.86 60.59,55.9 60.99,55.95 61.38,56.01 61.78,56.08 62.18,56.17 62.57,56.28 62.97,56.42 63.37,56.59 63.76,56.79 64.16,57.03 64.56,57.31 64.95,57.64 65.35,58.05 65.75,58.52 66.15,59.08 66.54,59.71 66.94,60.44 67.34,61.28 67.73,62.26 68.13,63.37 68.53,64.62 68.92,66.01 69.32,67.57 69.72,69.3 70.11,71.25 70.51,73.39 70.91,75.72 71.3,78.26 71.7,81 72.1,83.96 72.5,87.18 72.89,90.61 73.29,94.25 73.69,98.09 74.08,102.12 74.48,106.35 74.88,110.79 75.27,115.39 75.67,120.13 76.07,125 76.46,129.97 76.86,135.04 77.26,140.19 77.65,145.38 78.05,150.58 78.45,155.78 78.85,160.96 79.24,166.09 79.64,171.13 80.04,176.08 80.43,180.92 80.83,185.63 81.23,190.2 81.62,194.61 82.02,198.81 82.42,202.84 82.81,206.67 83.21,210.31 83.61,213.75 84,216.99 84.4,219.99 84.8,222.78 85.2,225.38 85.59,227.79 85.99,230.01 86.39,232.05 86.78,233.87 87.18,235.53 87.58,237.03 87.97,238.38 88.37,239.59 88.77,240.67 89.16,241.6 89.56,242.42 89.96,243.13 90.35,243.75 90.75,244.28 91.15,244.73 91.55,245.09 91.94,245.38 92.34,245.61 92.74,245.79 93.13,245.92 93.53,246.01 93.93,246.05 94.32,246.04 94.72,246.01 95.12,245.94 95.51,245.84 95.91,245.72 96.31,245.56 96.7,245.37 97.1,245.16 97.5,244.92 97.9,244.66 98.29,244.37 98.69,244.05 99.09,243.7 99.48,243.33 99.88,242.93 100.28,242.51 100.67,242.06 101.07,241.58 101.47,241.08 101.86,240.54 102.26,239.99 102.66,239.41 103.05,238.8 103.45,238.16 103.85,237.5 104.25,236.82 104.64,236.11 105.04,235.39 105.44,234.64 105.83,233.87 106.23,233.08 106.63,232.28 107.02,231.46 107.42,230.64 107.82,229.81 108.21,228.97 108.61,228.14 109.01,227.31 109.4,226.49 109.8,225.68 110.2,224.88 110.6,224.11 110.99,223.37 111.39,222.66 111.79,221.97 112.18,221.32 112.58,220.71 112.98,220.14 113.37,219.62 113.77,219.14 114.17,218.7 114.56,218.31 114.96,217.96 115.36,217.66 115.75,217.41 116.15,217.19 116.55,217.01 116.95,216.87 117.34,216.76 117.74,216.68 118.14,216.63 118.53,216.6 118.93,216.59 119.33,216.59 119.72,216.6 120.12,216.63 120.52,216.65 120.91,216.68 121.31,216.7 121.71,216.71 122.1,216.71 122.5,216.7 122.9,216.68 123.3,216.64 123.69,216.59 124.09,216.52 124.49,216.44 124.88,216.34 125.28,216.23 125.68,216.1 126.07,215.97 126.47,215.84 126.87,215.71 127.26,215.58 127.66,215.45 128.06,215.34 128.45,215.24 128.85,215.17 129.25,215.11 129.65,215.09 130.04,215.1 130.44,215.14 130.84,215.21 131.23,215.32 131.63,215.46 132.03,215.64 132.42,215.86 132.82,216.12 133.22,216.4 133.61,216.7 134.01,217.03 134.41,217.39 134.8,217.75 135.2,218.13 135.6,218.51 136,218.89 136.39,219.26 136.79,219.62 137.19,219.97 137.58,220.29 137.98,220.59 138.38,220.86 138.77,221.11 139.17,221.32 139.57,221.5 139.96,221.64 140.36,221.75 140.76,221.84 141.15,221.89 141.55,221.92 141.95,221.92 142.35,221.9 142.74,221.87 143.14,221.83 143.54,221.78 143.93,221.73 144.33,221.68 144.73,221.64 145.12,221.61 145.52,221.59 145.92,221.58 146.31,221.59 146.71,221.63 147.11,221.68 147.5,221.75 147.9,221.84 148.3,221.95 148.7,222.07 149.09,222.21 149.49,222.36 149.89,222.51 150.28,222.68 150.68,222.84 151.08,223 151.47,223.16 151.87,223.3 152.27,223.44 152.66,223.57 153.06,223.68 153.46,223.78 153.85,223.85 154.25,223.91 154.65,223.95 155.05,223.96 155.44,223.96 155.84,223.94 156.24,223.89 156.63,223.83 157.03,223.74 157.43,223.63 157.82,223.51 158.22,223.36 158.62,223.19 159.01,223 159.41,222.79 159.81,222.56 160.2,222.32 160.6,222.05 161,221.76 161.39,221.46 161.79,221.13 162.19,220.79 162.59,220.43 162.98,220.05 163.38,219.65 163.78,219.24 164.17,218.81 164.57,218.37 164.97,217.91 165.36,217.43 165.76,216.94 166.16,216.44 166.55,215.93 166.95,215.4 167.35,214.87 167.74,214.33 168.14,213.77 168.54,213.22 168.94,212.65 169.33,212.08 169.73,211.51 170.13,210.93 170.52,210.34 170.92,209.76 171.32,209.16 171.71,208.57 172.11,207.96 172.51,207.35 172.9,206.74 173.3,206.11 173.7,205.47 174.09,204.82 174.49,204.17 174.89,203.49 175.29,202.8 175.68,202.09 176.08,201.37 176.48,200.63 176.87,199.87 177.27,199.09 177.67,198.29 178.06,197.47 178.46,196.64 178.86,195.79 179.25,194.93 179.65,194.05 180.05,193.17 180.44,192.27 180.84,191.36 181.24,190.45 181.64,189.53 182.03,188.6 182.43,187.67 182.83,186.74 183.22,185.8 183.62,184.86 184.02,183.91 184.41,182.96 184.81,182 185.21,181.04 185.6,180.07 186,179.09 186.4,178.1 186.79,177.1 187.19,176.08 187.59,175.06 187.99,174.02 188.38,172.96 188.78,171.9 189.18,170.82 189.57,169.73 189.97,168.63 190.37,167.52 190.76,166.41 191.16,165.28 191.56,164.16 191.95,163.03 192.35,161.9 192.75,160.78 193.14,159.66 193.54,158.54 193.94,157.43 194.34,156.32 194.73,155.22 195.13,154.14 195.53,153.06 195.92,151.99 196.32,150.92 196.72,149.87 197.11,148.83 197.51,147.79 197.91,146.77 198.3,145.75 198.7,144.74 199.1,143.74 199.49,142.74 199.89,141.75 200.29,140.77 200.69,139.8 201.08,138.83 201.48,137.88 201.88,136.93 202.27,135.99 202.67,135.05 203.07,134.13 203.46,133.22 203.86,132.31 204.26,131.42 204.65,130.53 205.05,129.65 205.45,128.78 205.84,127.92 206.24,127.07 206.64,126.23 207.04,125.4 207.43,124.57 207.83,123.75 208.23,122.93 208.62,122.13 209.02,121.32 209.42,120.52 209.81,119.73 210.21,118.94 210.61,118.15 211,117.37 211.4,116.59 211.8,115.81 212.19,115.04 212.59,114.27 212.99,113.5 213.39,112.74 213.78,111.98 214.18,111.22 214.58,110.47 214.97,109.72 215.37,108.97 215.77,108.23 216.16,107.5 216.56,106.77 216.96,106.04 217.35,105.32 217.75,104.61 218.15,103.89 218.54,103.19 218.94,102.49 219.34,101.79 219.74,101.1 220.13,100.41 220.53,99.72 220.93,99.04 221.32,98.37 221.72,97.69 222.12,97.03 222.51,96.36 222.91,95.7 223.31,95.05 223.7,94.4 224.1,93.76 224.5,93.13 224.89,92.5 225.29,91.88 225.69,91.27 226.09,90.67 226.48,90.08 226.88,89.51 227.28,88.94 227.67,88.39 228.07,87.85 228.47,87.33 228.86,86.82 229.26,86.32 229.66,85.84 230.05,85.38 230.45,84.92 230.85,84.48 231.24,84.06 231.64,83.64 232.04,83.23 232.44,82.83 232.83,82.44 233.23,82.06 233.63,81.68 234.02,81.3 234.42,80.92 234.82,80.55 235.21,80.17 235.61,79.79 236.01,79.41 236.4,79.02 236.8,78.62 237.2,78.22 237.59,77.81 237.99,77.38 238.39,76.95 238.79,76.51 239.18,76.06 239.58,75.59 239.98,75.11 240.37,74.61 240.77,74.11 241.17,73.59 241.56,73.05 241.96,72.5 242.36,71.94 242.75,71.37 243.15,70.78 243.55,70.18 243.94,69.58 244.34,68.96 244.74,68.34 245.14,67.71 245.53,67.08 245.93,66.45 246.33,65.83 246.72,65.2 247.12,64.59 247.52,63.98 247.91,63.39 248.31,62.81 248.71,62.25 249.1,61.71 249.5,61.19 249.9,60.7 250.29,60.23 250.69,59.78 251.09,59.36 251.49,58.98 251.88,58.62 252.28,58.28 252.68,57.98 253.07,57.7 253.47,57.44 253.87,57.22 254.26,57.01 254.66,56.83 255.06,56.67 255.45,56.53 255.85,56.4 256.25,56.3 256.64,56.2 257.04,56.13 257.44,56.06 257.84,56 258.23,55.95 258.63,55.91 259.03,55.87 259.42,55.85 259.82,55.82 260.22,55.8 260.61,55.79 261.01,55.78 261.41,55.77 261.8,55.76" stroke-dasharray="none" stroke="rgb(27,158,119)" stroke-width="0.75" opacity="1" stroke-opacity="1" fill="none"/>
          </g>
          <g id="Fig:densplot_01.xyplot.lines.group.8.panel.1.1.1">
            <polyline id="Fig:densplot_01.xyplot.lines.group.8.panel.1.1.1.1" points="59.11,55.77 59.51,55.78 59.9,55.8 60.3,55.82 60.7,55.84 61.09,55.88 61.49,55.92 61.88,55.97 62.28,56.03 62.68,56.11 63.07,56.21 63.47,56.32 63.86,56.47 64.26,56.64 64.66,56.85 65.05,57.1 65.45,57.4 65.84,57.75 66.24,58.16 66.64,58.65 67.03,59.22 67.43,59.87 67.82,60.62 68.22,61.47 68.62,62.44 69.01,63.57 69.41,64.83 69.8,66.23 70.2,67.8 70.6,69.53 70.99,71.43 71.39,73.56 71.78,75.88 72.18,78.39 72.58,81.11 72.97,84.02 73.37,87.14 73.76,90.5 74.16,94.06 74.56,97.81 74.95,101.75 75.35,105.85 75.74,110.13 76.14,114.58 76.54,119.17 76.93,123.87 77.33,128.67 77.73,133.54 78.12,138.48 78.52,143.46 78.91,148.45 79.31,153.43 79.71,158.38 80.1,163.28 80.5,168.12 80.89,172.86 81.29,177.48 81.69,181.98 82.08,186.35 82.48,190.58 82.87,194.65 83.27,198.54 83.67,202.24 84.06,205.77 84.46,209.13 84.85,212.31 85.25,215.31 85.65,218.12 86.04,220.75 86.44,223.2 86.83,225.5 87.23,227.64 87.63,229.64 88.02,231.47 88.42,233.16 88.81,234.71 89.21,236.14 89.61,237.46 90,238.66 90.4,239.75 90.79,240.73 91.19,241.61 91.59,242.4 91.98,243.11 92.38,243.73 92.77,244.27 93.17,244.73 93.57,245.11 93.96,245.43 94.36,245.68 94.75,245.88 95.15,246.01 95.55,246.07 95.94,246.08 96.34,246.04 96.73,245.94 97.13,245.81 97.53,245.62 97.92,245.39 98.32,245.11 98.71,244.8 99.11,244.45 99.51,244.06 99.9,243.65 100.3,243.2 100.69,242.72 101.09,242.22 101.49,241.7 101.88,241.16 102.28,240.61 102.67,240.04 103.07,239.45 103.47,238.86 103.86,238.26 104.26,237.66 104.65,237.06 105.05,236.46 105.45,235.86 105.84,235.27 106.24,234.69 106.64,234.11 107.03,233.54 107.43,232.99 107.82,232.44 108.22,231.91 108.62,231.39 109.01,230.88 109.41,230.39 109.8,229.9 110.2,229.43 110.6,228.97 110.99,228.52 111.39,228.07 111.78,227.64 112.18,227.21 112.58,226.78 112.97,226.36 113.37,225.95 113.76,225.54 114.16,225.14 114.56,224.74 114.95,224.35 115.35,223.96 115.74,223.58 116.14,223.21 116.54,222.85 116.93,222.5 117.33,222.17 117.72,221.85 118.12,221.54 118.52,221.26 118.91,220.99 119.31,220.75 119.7,220.54 120.1,220.35 120.5,220.18 120.89,220.04 121.29,219.93 121.68,219.84 122.08,219.78 122.48,219.74 122.87,219.73 123.27,219.73 123.66,219.75 124.06,219.78 124.46,219.83 124.85,219.89 125.25,219.95 125.64,220.02 126.04,220.09 126.44,220.16 126.83,220.22 127.23,220.28 127.62,220.33 128.02,220.37 128.42,220.41 128.81,220.43 129.21,220.44 129.6,220.44 130,220.43 130.4,220.41 130.79,220.38 131.19,220.35 131.58,220.31 131.98,220.27 132.38,220.23 132.77,220.19 133.17,220.16 133.57,220.13 133.96,220.12 134.36,220.12 134.75,220.14 135.15,220.19 135.55,220.25 135.94,220.34 136.34,220.46 136.73,220.62 137.13,220.8 137.53,221.02 137.92,221.26 138.32,221.54 138.71,221.85 139.11,222.2 139.51,222.57 139.9,222.96 140.3,223.38 140.69,223.81 141.09,224.25 141.49,224.71 141.88,225.16 142.28,225.62 142.67,226.07 143.07,226.52 143.47,226.94 143.86,227.35 144.26,227.74 144.65,228.1 145.05,228.44 145.45,228.74 145.84,229.02 146.24,229.26 146.63,229.46 147.03,229.64 147.43,229.78 147.82,229.88 148.22,229.96 148.61,230.01 149.01,230.02 149.41,230.01 149.8,229.98 150.2,229.92 150.59,229.84 150.99,229.75 151.39,229.64 151.78,229.51 152.18,229.38 152.57,229.24 152.97,229.08 153.37,228.93 153.76,228.76 154.16,228.6 154.55,228.43 154.95,228.26 155.35,228.09 155.74,227.92 156.14,227.75 156.53,227.58 156.93,227.4 157.33,227.23 157.72,227.06 158.12,226.89 158.51,226.71 158.91,226.54 159.31,226.36 159.7,226.18 160.1,225.99 160.49,225.79 160.89,225.59 161.29,225.38 161.68,225.16 162.08,224.93 162.48,224.68 162.87,224.42 163.27,224.14 163.66,223.85 164.06,223.54 164.46,223.2 164.85,222.85 165.25,222.47 165.64,222.07 166.04,221.64 166.44,221.19 166.83,220.71 167.23,220.2 167.62,219.66 168.02,219.09 168.42,218.5 168.81,217.87 169.21,217.22 169.6,216.53 170,215.82 170.4,215.07 170.79,214.29 171.19,213.48 171.58,212.65 171.98,211.79 172.38,210.9 172.77,209.97 173.17,209.03 173.56,208.06 173.96,207.07 174.36,206.06 174.75,205.03 175.15,203.99 175.54,202.93 175.94,201.86 176.34,200.79 176.73,199.71 177.13,198.63 177.52,197.55 177.92,196.48 178.32,195.41 178.71,194.35 179.11,193.3 179.5,192.26 179.9,191.23 180.3,190.23 180.69,189.23 181.09,188.25 181.48,187.29 181.88,186.34 182.28,185.41 182.67,184.49 183.07,183.59 183.46,182.7 183.86,181.81 184.26,180.93 184.65,180.06 185.05,179.2 185.44,178.33 185.84,177.46 186.24,176.6 186.63,175.73 187.03,174.85 187.42,173.96 187.82,173.07 188.22,172.17 188.61,171.26 189.01,170.34 189.4,169.41 189.8,168.47 190.2,167.51 190.59,166.55 190.99,165.58 191.39,164.6 191.78,163.61 192.18,162.61 192.57,161.6 192.97,160.59 193.37,159.57 193.76,158.54 194.16,157.51 194.55,156.48 194.95,155.44 195.35,154.4 195.74,153.36 196.14,152.32 196.53,151.27 196.93,150.23 197.33,149.18 197.72,148.13 198.12,147.09 198.51,146.04 198.91,145 199.31,143.96 199.7,142.92 200.1,141.89 200.49,140.86 200.89,139.84 201.29,138.82 201.68,137.81 202.08,136.8 202.47,135.81 202.87,134.81 203.27,133.83 203.66,132.85 204.06,131.88 204.45,130.92 204.85,129.96 205.25,129.01 205.64,128.07 206.04,127.12 206.43,126.19 206.83,125.26 207.23,124.33 207.62,123.4 208.02,122.48 208.41,121.57 208.81,120.66 209.21,119.75 209.6,118.85 210,117.95 210.39,117.06 210.79,116.18 211.19,115.31 211.58,114.45 211.98,113.59 212.37,112.75 212.77,111.92 213.17,111.1 213.56,110.29 213.96,109.5 214.35,108.72 214.75,107.94 215.15,107.18 215.54,106.43 215.94,105.69 216.33,104.96 216.73,104.23 217.13,103.51 217.52,102.8 217.92,102.09 218.32,101.38 218.71,100.68 219.11,99.98 219.5,99.28 219.9,98.58 220.3,97.89 220.69,97.19 221.09,96.5 221.48,95.82 221.88,95.14 222.28,94.47 222.67,93.8 223.07,93.15 223.46,92.5 223.86,91.87 224.26,91.25 224.65,90.64 225.05,90.04 225.44,89.47 225.84,88.91 226.24,88.36 226.63,87.84 227.03,87.33 227.42,86.83 227.82,86.36 228.22,85.9 228.61,85.45 229.01,85.02 229.4,84.6 229.8,84.19 230.2,83.79 230.59,83.4 230.99,83.02 231.38,82.64 231.78,82.27 232.18,81.9 232.57,81.53 232.97,81.17 233.36,80.8 233.76,80.43 234.16,80.06 234.55,79.68 234.95,79.31 235.34,78.92 235.74,78.53 236.14,78.14 236.53,77.73 236.93,77.32 237.32,76.9 237.72,76.48 238.12,76.04 238.51,75.59 238.91,75.13 239.3,74.65 239.7,74.17 240.1,73.67 240.49,73.16 240.89,72.63 241.28,72.1 241.68,71.54 242.08,70.98 242.47,70.4 242.87,69.82 243.26,69.22 243.66,68.61 244.06,68 244.45,67.38 244.85,66.76 245.24,66.14 245.64,65.52 246.04,64.91 246.43,64.31 246.83,63.71 247.23,63.13 247.62,62.57 248.02,62.02 248.41,61.49 248.81,60.99 249.21,60.5 249.6,60.05 250,59.62 250.39,59.22 250.79,58.84 251.19,58.49 251.58,58.17 251.98,57.87 252.37,57.61 252.77,57.36 253.17,57.15 253.56,56.95 253.96,56.78 254.35,56.62 254.75,56.49 255.15,56.37 255.54,56.27 255.94,56.18 256.33,56.1 256.73,56.04 257.13,55.98 257.52,55.94 257.92,55.9 258.31,55.87 258.71,55.84 259.11,55.82 259.5,55.8 259.9,55.79 260.29,55.77 260.69,55.76 261.09,55.76 261.48,55.75" stroke-dasharray="none" stroke="rgb(152,78,163)" stroke-width="0.75" opacity="1" stroke-opacity="1" fill="none"/>
          </g>
          <g id="Fig:densplot_01.xyplot.lines.group.9.panel.1.1.1">
            <polyline id="Fig:densplot_01.xyplot.lines.group.9.panel.1.1.1.1" points="59,55.77 59.4,55.78 59.8,55.8 60.19,55.82 60.59,55.85 60.98,55.89 61.38,55.93 61.78,55.98 62.17,56.05 62.57,56.14 62.97,56.24 63.36,56.37 63.76,56.52 64.16,56.7 64.55,56.93 64.95,57.2 65.35,57.51 65.74,57.89 66.14,58.33 66.54,58.83 66.93,59.44 67.33,60.14 67.73,60.94 68.12,61.86 68.52,62.89 68.92,64.05 69.31,65.39 69.71,66.89 70.11,68.55 70.5,70.38 70.9,72.4 71.3,74.6 71.69,77.04 72.09,79.68 72.49,82.53 72.88,85.58 73.28,88.84 73.68,92.3 74.07,95.99 74.47,99.88 74.86,103.95 75.26,108.19 75.66,112.58 76.05,117.12 76.45,121.8 76.85,126.59 77.24,131.47 77.64,136.41 78.04,141.4 78.43,146.42 78.83,151.44 79.23,156.44 79.62,161.4 80.02,166.3 80.42,171.12 80.81,175.85 81.21,180.46 81.61,184.93 82,189.25 82.4,193.43 82.8,197.45 83.19,201.31 83.59,204.98 83.99,208.45 84.38,211.74 84.78,214.86 85.18,217.79 85.57,220.56 85.97,223.13 86.37,225.5 86.76,227.72 87.16,229.77 87.56,231.67 87.95,233.43 88.35,235.02 88.75,236.46 89.14,237.77 89.54,238.96 89.93,240.03 90.33,240.99 90.73,241.84 91.12,242.57 91.52,243.21 91.92,243.77 92.31,244.25 92.71,244.64 93.11,244.96 93.5,245.21 93.9,245.39 94.3,245.51 94.69,245.57 95.09,245.59 95.49,245.55 95.88,245.46 96.28,245.33 96.68,245.16 97.07,244.94 97.47,244.7 97.87,244.42 98.26,244.1 98.66,243.75 99.06,243.38 99.45,242.98 99.85,242.56 100.25,242.11 100.64,241.65 101.04,241.17 101.44,240.67 101.83,240.16 102.23,239.64 102.63,239.11 103.02,238.57 103.42,238.03 103.81,237.49 104.21,236.95 104.61,236.41 105,235.86 105.4,235.32 105.8,234.79 106.19,234.26 106.59,233.73 106.99,233.2 107.38,232.68 107.78,232.16 108.18,231.65 108.57,231.14 108.97,230.62 109.37,230.11 109.76,229.6 110.16,229.09 110.56,228.58 110.95,228.07 111.35,227.55 111.75,227.04 112.14,226.52 112.54,226 112.94,225.49 113.33,224.97 113.73,224.46 114.13,223.95 114.52,223.44 114.92,222.94 115.32,222.45 115.71,221.97 116.11,221.51 116.51,221.05 116.9,220.61 117.3,220.2 117.7,219.8 118.09,219.43 118.49,219.08 118.88,218.76 119.28,218.46 119.68,218.2 120.07,217.97 120.47,217.77 120.87,217.6 121.26,217.46 121.66,217.35 122.06,217.27 122.45,217.22 122.85,217.2 123.25,217.21 123.64,217.23 124.04,217.28 124.44,217.35 124.83,217.44 125.23,217.54 125.63,217.65 126.02,217.77 126.42,217.91 126.82,218.05 127.21,218.21 127.61,218.37 128.01,218.54 128.4,218.73 128.8,218.92 129.2,219.13 129.59,219.35 129.99,219.58 130.39,219.83 130.78,220.1 131.18,220.38 131.58,220.68 131.97,221 132.37,221.34 132.76,221.69 133.16,222.06 133.56,222.43 133.95,222.82 134.35,223.22 134.75,223.61 135.14,224.01 135.54,224.41 135.94,224.8 136.33,225.19 136.73,225.56 137.13,225.91 137.52,226.25 137.92,226.57 138.32,226.88 138.71,227.16 139.11,227.41 139.51,227.65 139.9,227.86 140.3,228.06 140.7,228.23 141.09,228.39 141.49,228.52 141.89,228.64 142.28,228.74 142.68,228.82 143.08,228.89 143.47,228.95 143.87,228.99 144.27,229.02 144.66,229.03 145.06,229.04 145.46,229.03 145.85,229.01 146.25,228.97 146.65,228.92 147.04,228.86 147.44,228.78 147.83,228.69 148.23,228.6 148.63,228.48 149.02,228.36 149.42,228.23 149.82,228.09 150.21,227.94 150.61,227.79 151.01,227.63 151.4,227.48 151.8,227.32 152.2,227.17 152.59,227.02 152.99,226.87 153.39,226.73 153.78,226.6 154.18,226.48 154.58,226.36 154.97,226.25 155.37,226.15 155.77,226.05 156.16,225.96 156.56,225.87 156.96,225.78 157.35,225.69 157.75,225.6 158.15,225.5 158.54,225.39 158.94,225.27 159.34,225.14 159.73,224.99 160.13,224.82 160.53,224.63 160.92,224.41 161.32,224.15 161.71,223.87 162.11,223.56 162.51,223.21 162.9,222.82 163.3,222.39 163.7,221.91 164.09,221.4 164.49,220.84 164.89,220.24 165.28,219.59 165.68,218.9 166.08,218.16 166.47,217.39 166.87,216.58 167.27,215.73 167.66,214.85 168.06,213.94 168.46,213.01 168.85,212.05 169.25,211.08 169.65,210.1 170.04,209.1 170.44,208.11 170.84,207.11 171.23,206.12 171.63,205.14 172.03,204.16 172.42,203.21 172.82,202.26 173.22,201.34 173.61,200.44 174.01,199.55 174.41,198.68 174.8,197.84 175.2,197.01 175.6,196.21 175.99,195.42 176.39,194.65 176.78,193.89 177.18,193.15 177.58,192.42 177.97,191.71 178.37,191 178.77,190.31 179.16,189.62 179.56,188.94 179.96,188.26 180.35,187.59 180.75,186.93 181.15,186.26 181.54,185.6 181.94,184.94 182.34,184.29 182.73,183.62 183.13,182.96 183.53,182.29 183.92,181.61 184.32,180.93 184.72,180.23 185.11,179.53 185.51,178.81 185.91,178.07 186.3,177.32 186.7,176.55 187.1,175.75 187.49,174.94 187.89,174.1 188.29,173.24 188.68,172.36 189.08,171.46 189.48,170.53 189.87,169.58 190.27,168.61 190.66,167.61 191.06,166.6 191.46,165.57 191.85,164.52 192.25,163.45 192.65,162.36 193.04,161.27 193.44,160.15 193.84,159.03 194.23,157.89 194.63,156.75 195.03,155.59 195.42,154.42 195.82,153.25 196.22,152.07 196.61,150.88 197.01,149.69 197.41,148.5 197.8,147.3 198.2,146.1 198.6,144.9 198.99,143.71 199.39,142.52 199.79,141.34 200.18,140.17 200.58,139.02 200.98,137.87 201.37,136.75 201.77,135.64 202.17,134.56 202.56,133.5 202.96,132.47 203.36,131.46 203.75,130.47 204.15,129.52 204.55,128.6 204.94,127.7 205.34,126.82 205.73,125.97 206.13,125.15 206.53,124.35 206.92,123.57 207.32,122.81 207.72,122.06 208.11,121.33 208.51,120.62 208.91,119.91 209.3,119.22 209.7,118.53 210.1,117.85 210.49,117.18 210.89,116.51 211.29,115.85 211.68,115.19 212.08,114.53 212.48,113.87 212.87,113.22 213.27,112.57 213.67,111.92 214.06,111.27 214.46,110.62 214.86,109.97 215.25,109.32 215.65,108.67 216.05,108.02 216.44,107.36 216.84,106.7 217.24,106.03 217.63,105.36 218.03,104.69 218.43,104 218.82,103.31 219.22,102.62 219.61,101.91 220.01,101.2 220.41,100.48 220.8,99.76 221.2,99.03 221.6,98.31 221.99,97.58 222.39,96.85 222.79,96.12 223.18,95.4 223.58,94.69 223.98,93.98 224.37,93.28 224.77,92.6 225.17,91.93 225.56,91.28 225.96,90.65 226.36,90.03 226.75,89.43 227.15,88.86 227.55,88.3 227.94,87.77 228.34,87.26 228.74,86.77 229.13,86.29 229.53,85.84 229.93,85.4 230.32,84.98 230.72,84.58 231.12,84.19 231.51,83.81 231.91,83.43 232.31,83.07 232.7,82.71 233.1,82.35 233.5,82 233.89,81.64 234.29,81.28 234.68,80.91 235.08,80.54 235.48,80.16 235.87,79.78 236.27,79.38 236.67,78.97 237.06,78.56 237.46,78.12 237.86,77.68 238.25,77.22 238.65,76.75 239.05,76.27 239.44,75.77 239.84,75.26 240.24,74.73 240.63,74.19 241.03,73.64 241.43,73.07 241.82,72.49 242.22,71.9 242.62,71.3 243.01,70.68 243.41,70.06 243.81,69.43 244.2,68.8 244.6,68.15 245,67.51 245.39,66.87 245.79,66.23 246.19,65.59 246.58,64.96 246.98,64.34 247.38,63.73 247.77,63.14 248.17,62.56 248.56,62 248.96,61.46 249.36,60.95 249.75,60.47 250.15,60.01 250.55,59.57 250.94,59.17 251.34,58.79 251.74,58.44 252.13,58.12 252.53,57.82 252.93,57.56 253.32,57.32 253.72,57.1 254.12,56.91 254.51,56.74 254.91,56.59 255.31,56.46 255.7,56.34 256.1,56.24 256.5,56.15 256.89,56.08 257.29,56.02 257.69,55.97 258.08,55.92 258.48,55.89 258.88,55.86 259.27,55.83 259.67,55.81 260.07,55.79 260.46,55.78 260.86,55.77 261.26,55.76 261.65,55.75" stroke-dasharray="none" stroke="rgb(255,255,51)" stroke-width="0.75" opacity="1" stroke-opacity="1" fill="none"/>
          </g>
          <g id="Fig:densplot_01.xyplot.lines.group.10.panel.1.1.1">
            <polyline id="Fig:densplot_01.xyplot.lines.group.10.panel.1.1.1.1" points="59.26,55.78 59.66,55.79 60.06,55.81 60.45,55.83 60.85,55.86 61.24,55.9 61.64,55.94 62.04,56 62.43,56.07 62.83,56.16 63.22,56.27 63.62,56.4 64.02,56.56 64.41,56.76 64.81,56.99 65.2,57.27 65.6,57.6 65.99,57.99 66.39,58.44 66.79,58.98 67.18,59.61 67.58,60.33 67.97,61.15 68.37,62.08 68.77,63.14 69.16,64.36 69.56,65.73 69.95,67.25 70.35,68.93 70.74,70.79 71.14,72.83 71.54,75.1 71.93,77.57 72.33,80.23 72.72,83.1 73.12,86.17 73.52,89.43 73.91,92.94 74.31,96.64 74.7,100.53 75.1,104.59 75.49,108.81 75.89,113.19 76.29,117.72 76.68,122.38 77.08,127.13 77.47,131.96 77.87,136.85 78.27,141.78 78.66,146.73 79.06,151.68 79.45,156.6 79.85,161.48 80.25,166.3 80.64,171.04 81.04,175.67 81.43,180.17 81.83,184.55 82.22,188.79 82.62,192.88 83.02,196.82 83.41,200.57 83.81,204.14 84.2,207.54 84.6,210.77 85,213.82 85.39,216.7 85.79,219.4 86.18,221.9 86.58,224.24 86.97,226.42 87.37,228.44 87.77,230.31 88.16,232.03 88.56,233.58 88.95,235 89.35,236.29 89.75,237.46 90.14,238.52 90.54,239.46 90.93,240.27 91.33,240.98 91.73,241.61 92.12,242.14 92.52,242.59 92.91,242.97 93.31,243.25 93.7,243.47 94.1,243.63 94.5,243.73 94.89,243.77 95.29,243.77 95.68,243.71 96.08,243.61 96.48,243.46 96.87,243.29 97.27,243.08 97.66,242.84 98.06,242.57 98.45,242.28 98.85,241.96 99.25,241.62 99.64,241.27 100.04,240.9 100.43,240.51 100.83,240.11 101.23,239.7 101.62,239.28 102.02,238.85 102.41,238.41 102.81,237.97 103.21,237.52 103.6,237.06 104,236.6 104.39,236.14 104.79,235.67 105.18,235.19 105.58,234.71 105.98,234.23 106.37,233.74 106.77,233.25 107.16,232.76 107.56,232.26 107.96,231.76 108.35,231.26 108.75,230.76 109.14,230.26 109.54,229.75 109.93,229.25 110.33,228.75 110.73,228.26 111.12,227.76 111.52,227.28 111.91,226.79 112.31,226.32 112.71,225.85 113.1,225.39 113.5,224.95 113.89,224.51 114.29,224.08 114.68,223.67 115.08,223.27 115.48,222.89 115.87,222.52 116.27,222.17 116.66,221.84 117.06,221.53 117.46,221.24 117.85,220.98 118.25,220.74 118.64,220.52 119.04,220.32 119.44,220.15 119.83,220.01 120.23,219.9 120.62,219.81 121.02,219.74 121.41,219.69 121.81,219.67 122.21,219.67 122.6,219.69 123,219.73 123.39,219.79 123.79,219.86 124.19,219.95 124.58,220.05 124.98,220.16 125.37,220.28 125.77,220.41 126.16,220.54 126.56,220.69 126.96,220.84 127.35,221 127.75,221.17 128.14,221.34 128.54,221.51 128.94,221.69 129.33,221.88 129.73,222.06 130.12,222.25 130.52,222.45 130.92,222.64 131.31,222.83 131.71,223.02 132.1,223.2 132.5,223.38 132.89,223.55 133.29,223.71 133.69,223.87 134.08,224.01 134.48,224.13 134.87,224.25 135.27,224.35 135.67,224.44 136.06,224.52 136.46,224.59 136.85,224.65 137.25,224.69 137.64,224.74 138.04,224.77 138.44,224.81 138.83,224.85 139.23,224.89 139.62,224.93 140.02,224.98 140.42,225.05 140.81,225.13 141.21,225.22 141.6,225.33 142,225.45 142.4,225.6 142.79,225.76 143.19,225.94 143.58,226.14 143.98,226.36 144.37,226.59 144.77,226.84 145.17,227.09 145.56,227.36 145.96,227.63 146.35,227.91 146.75,228.19 147.15,228.46 147.54,228.73 147.94,229 148.33,229.25 148.73,229.5 149.12,229.72 149.52,229.93 149.92,230.13 150.31,230.3 150.71,230.45 151.1,230.58 151.5,230.69 151.9,230.77 152.29,230.82 152.69,230.86 153.08,230.87 153.48,230.85 153.87,230.81 154.27,230.74 154.67,230.65 155.06,230.54 155.46,230.41 155.85,230.26 156.25,230.08 156.65,229.88 157.04,229.67 157.44,229.45 157.83,229.21 158.23,228.95 158.63,228.69 159.02,228.41 159.42,228.13 159.81,227.84 160.21,227.54 160.6,227.23 161,226.92 161.4,226.6 161.79,226.28 162.19,225.94 162.58,225.6 162.98,225.25 163.38,224.88 163.77,224.5 164.17,224.1 164.56,223.69 164.96,223.25 165.35,222.79 165.75,222.3 166.15,221.78 166.54,221.22 166.94,220.64 167.33,220.01 167.73,219.36 168.13,218.65 168.52,217.91 168.92,217.13 169.31,216.31 169.71,215.46 170.11,214.56 170.5,213.63 170.9,212.67 171.29,211.67 171.69,210.65 172.08,209.61 172.48,208.54 172.88,207.46 173.27,206.37 173.67,205.27 174.06,204.17 174.46,203.08 174.86,201.98 175.25,200.9 175.65,199.83 176.04,198.78 176.44,197.75 176.83,196.74 177.23,195.74 177.63,194.78 178.02,193.83 178.42,192.91 178.81,192.01 179.21,191.12 179.61,190.25 180,189.4 180.4,188.57 180.79,187.74 181.19,186.92 181.58,186.1 181.98,185.28 182.38,184.47 182.77,183.65 183.17,182.83 183.56,182 183.96,181.16 184.36,180.32 184.75,179.46 185.15,178.6 185.54,177.72 185.94,176.84 186.34,175.95 186.73,175.05 187.13,174.14 187.52,173.23 187.92,172.31 188.31,171.38 188.71,170.45 189.11,169.52 189.5,168.58 189.9,167.64 190.29,166.69 190.69,165.75 191.09,164.8 191.48,163.85 191.88,162.89 192.27,161.93 192.67,160.97 193.06,160 193.46,159.03 193.86,158.05 194.25,157.06 194.65,156.06 195.04,155.06 195.44,154.04 195.84,153.01 196.23,151.98 196.63,150.93 197.02,149.86 197.42,148.79 197.82,147.7 198.21,146.6 198.61,145.49 199,144.38 199.4,143.25 199.79,142.12 200.19,140.98 200.59,139.84 200.98,138.7 201.38,137.57 201.77,136.44 202.17,135.32 202.57,134.2 202.96,133.11 203.36,132.02 203.75,130.95 204.15,129.91 204.54,128.89 204.94,127.88 205.34,126.91 205.73,125.95 206.13,125.02 206.52,124.11 206.92,123.23 207.32,122.38 207.71,121.54 208.11,120.72 208.5,119.92 208.9,119.14 209.3,118.38 209.69,117.63 210.09,116.88 210.48,116.15 210.88,115.41 211.27,114.69 211.67,113.97 212.07,113.24 212.46,112.52 212.86,111.8 213.25,111.07 213.65,110.34 214.05,109.61 214.44,108.88 214.84,108.14 215.23,107.41 215.63,106.67 216.02,105.93 216.42,105.19 216.82,104.46 217.21,103.72 217.61,102.99 218,102.27 218.4,101.55 218.8,100.83 219.19,100.12 219.59,99.42 219.98,98.73 220.38,98.05 220.77,97.38 221.17,96.71 221.57,96.06 221.96,95.42 222.36,94.79 222.75,94.16 223.15,93.55 223.55,92.95 223.94,92.37 224.34,91.79 224.73,91.23 225.13,90.67 225.53,90.13 225.92,89.6 226.32,89.08 226.71,88.57 227.11,88.07 227.5,87.58 227.9,87.1 228.3,86.63 228.69,86.16 229.09,85.71 229.48,85.27 229.88,84.83 230.28,84.4 230.67,83.98 231.07,83.56 231.46,83.15 231.86,82.75 232.25,82.35 232.65,81.95 233.05,81.56 233.44,81.17 233.84,80.78 234.23,80.39 234.63,80 235.03,79.61 235.42,79.21 235.82,78.81 236.21,78.41 236.61,78 237.01,77.59 237.4,77.17 237.8,76.74 238.19,76.3 238.59,75.84 238.98,75.38 239.38,74.9 239.78,74.41 240.17,73.91 240.57,73.39 240.96,72.86 241.36,72.31 241.76,71.75 242.15,71.18 242.55,70.6 242.94,70 243.34,69.39 243.73,68.78 244.13,68.16 244.53,67.53 244.92,66.9 245.32,66.28 245.71,65.65 246.11,65.03 246.51,64.42 246.9,63.82 247.3,63.24 247.69,62.67 248.09,62.12 248.49,61.59 248.88,61.08 249.28,60.59 249.67,60.13 250.07,59.7 250.46,59.29 250.86,58.91 251.26,58.56 251.65,58.23 252.05,57.93 252.44,57.66 252.84,57.41 253.24,57.19 253.63,56.99 254.03,56.81 254.42,56.65 254.82,56.52 255.21,56.4 255.61,56.29 256.01,56.2 256.4,56.12 256.8,56.05 257.19,56 257.59,55.95 257.99,55.91 258.38,55.87 258.78,55.85 259.17,55.82 259.57,55.8 259.96,55.79 260.36,55.78 260.76,55.77 261.15,55.76 261.55,55.75" stroke-dasharray="none" stroke="rgb(228,26,28)" stroke-width="0.75" opacity="1" stroke-opacity="1" fill="none"/>
          </g>
        </g>
        <g id="Fig:densplot_01.panel.1.1.off.vp.2">
          <g id="Fig:densplot_01.border.panel.1.1.1">
            <rect id="Fig:densplot_01.border.panel.1.1.1.1" x="44.8" y="42.19" width="231.2" height="220.85" transform="" stroke="rgb(0,0,0)" stroke-dasharray="none" stroke-width="0.75" opacity="1" fill="none" stroke-opacity="1" fill-opacity="0"/>
          </g>
        </g>
        <g id="Fig:densplot_01..1"/>
      </g>
    </g>
  </g>
</svg>